<svg width="248" height="82" viewBox="0 0 248 82" fill="none" xmlns="http://www.w3.org/2000/svg">
<path d="M39.1235 34.032V5.832L48.8435 28.056H52.8995L62.6195 5.688V34.032H66.6755V0.408002H60.7955L50.8835 23.112L40.9475 0.408002H35.0915V34.032H39.1235Z" fill="black"/>
<path d="M87.1214 34.464C96.0254 34.464 102.241 27.696 102.241 17.232C102.241 6.768 96.0254 0 87.1214 0C78.2174 0 72.0014 6.768 72.0014 17.232C72.0014 27.696 78.2174 34.464 87.1214 34.464ZM87.1214 30.528C80.8334 30.528 76.2494 25.512 76.2494 17.232C76.2494 8.952 80.8334 3.936 87.1214 3.936C93.4334 3.936 98.0174 8.952 98.0174 17.232C98.0174 25.512 93.4334 30.528 87.1214 30.528Z" fill="black"/>
<path d="M118.759 34.032C128.647 34.032 134.647 27.624 134.647 17.232C134.647 6.816 128.647 0.432 118.759 0.432H107.623V34.032H118.759ZM111.679 4.248H118.735C126.439 4.248 130.399 9.192 130.399 17.232C130.399 25.224 126.439 30.216 118.735 30.216H111.679V4.248Z" fill="black"/>
<path d="M151.997 34.44C159.149 34.44 164.357 30.12 164.357 22.104V0.432H160.301V21.84C160.301 27.744 156.797 30.504 151.997 30.504C147.221 30.504 143.717 27.744 143.717 21.84V0.432H139.661V22.104C139.661 30.12 144.869 34.44 151.997 34.44Z" fill="black"/>
<path d="M191.49 34.032V30.216H174.882V0.432H170.826V34.032H191.49Z" fill="black"/>
<path d="M196.847 34.032L199.991 25.008H214.127L217.271 34.032H221.567L209.543 0.408002H204.671L192.647 34.032H196.847ZM207.071 4.656L212.831 21.216H201.311L207.071 4.656Z" fill="black"/>
<path d="M229.226 34.032V19.632H232.586L242.834 34.032H247.706L237.122 19.632C243.65 19.464 247.658 15.84 247.658 10.08C247.658 3.936 243.65 0.432 236.618 0.432H225.17V34.032H229.226ZM229.226 4.224H236.594C240.962 4.224 243.458 6.192 243.458 10.08C243.458 13.992 241.01 16.032 236.594 16.032H229.226V4.224Z" fill="black"/>
<path d="M14.472 81.056L22.344 53.384L30.192 81.056H35.112L44.664 47.432H40.512L32.64 76.112L24.6 47.408H20.16L12.12 76.16L4.248 47.432H0L9.552 81.056H14.472Z" fill="black"/>
<path d="M47.3941 81.032L50.5381 72.008H64.6741L67.8181 81.032H72.1141L60.0901 47.408H55.2181L43.1941 81.032H47.3941ZM57.6181 51.656L63.3781 68.216H51.8581L57.6181 51.656Z" fill="black"/>
<path d="M79.7725 81.032V66.632H83.1325L93.3805 81.032H98.2525L87.6685 66.632C94.1965 66.464 98.2045 62.84 98.2045 57.08C98.2045 50.936 94.1965 47.432 87.1645 47.432H75.7165V81.032H79.7725ZM79.7725 51.224H87.1405C91.5085 51.224 94.0045 53.192 94.0045 57.08C94.0045 60.992 91.5565 63.032 87.1405 63.032H79.7725V51.224Z" fill="black"/>
<path d="M114.446 81.032C124.334 81.032 130.334 74.624 130.334 64.232C130.334 53.816 124.334 47.432 114.446 47.432H103.31V81.032H114.446ZM107.366 51.248H114.422C122.126 51.248 126.086 56.192 126.086 64.232C126.086 72.224 122.126 77.216 114.422 77.216H107.366V51.248Z" fill="black"/>
<path d="M139.788 81.032V66.632H143.148L153.396 81.032H158.268L147.684 66.632C154.212 66.464 158.22 62.84 158.22 57.08C158.22 50.936 154.212 47.432 147.18 47.432H135.732V81.032H139.788ZM139.788 51.224H147.156C151.524 51.224 154.02 53.192 154.02 57.08C154.02 60.992 151.572 63.032 147.156 63.032H139.788V51.224Z" fill="black"/>
<path d="M176.887 81.464C185.791 81.464 192.007 74.696 192.007 64.232C192.007 53.768 185.791 47 176.887 47C167.983 47 161.767 53.768 161.767 64.232C161.767 74.696 167.983 81.464 176.887 81.464ZM176.887 77.528C170.599 77.528 166.015 72.512 166.015 64.232C166.015 55.952 170.599 50.936 176.887 50.936C183.199 50.936 187.783 55.952 187.783 64.232C187.783 72.512 183.199 77.528 176.887 77.528Z" fill="black"/>
<path d="M209.388 81.032C216.372 81.032 220.74 78.056 220.74 71.72C220.74 67.472 218.22 64.784 214.668 63.776C217.932 62.792 220.068 60.248 220.068 56.384C220.068 50.144 215.508 47.432 208.86 47.432H197.388V81.032H209.388ZM201.468 51.176H208.764C212.82 51.176 215.844 52.496 215.844 56.624C215.844 60.824 212.844 62.12 208.764 62.12H201.468V51.176ZM201.468 65.84H209.268C213.636 65.84 216.492 67.304 216.492 71.552C216.492 75.824 213.636 77.288 209.268 77.288H201.468V65.84Z" fill="black"/>
<path d="M246.705 81.032V77.264H229.929V65.984H245.985V62.216H229.929V51.2H246.585V47.432H225.873V81.032H246.705Z" fill="black"/>
</svg>
