<svg width="156" height="53" viewBox="0 0 156 53" fill="none" xmlns="http://www.w3.org/2000/svg">
<path d="M25.1555 20.834V3.69854L31.0618 17.2027H33.5263L39.4326 3.61104V20.834H41.8972V0.402703H38.3242L32.3013 14.1985L26.2638 0.402703H22.7055V20.834H25.1555Z" fill="black"/>
<path d="M54.9285 21.0965C60.3389 21.0965 64.116 16.984 64.116 10.6256C64.116 4.26729 60.3389 0.154785 54.9285 0.154785C49.5181 0.154785 45.741 4.26729 45.741 10.6256C45.741 16.984 49.5181 21.0965 54.9285 21.0965ZM54.9285 18.7048C51.1077 18.7048 48.3223 15.6569 48.3223 10.6256C48.3223 5.59437 51.1077 2.54645 54.9285 2.54645C58.7639 2.54645 61.5493 5.59437 61.5493 10.6256C61.5493 15.6569 58.7639 18.7048 54.9285 18.7048Z" fill="black"/>
<path d="M74.7603 20.834C80.7686 20.834 84.4144 16.9402 84.4144 10.6256C84.4144 4.29645 80.7686 0.417285 74.7603 0.417285H67.9936V20.834H74.7603ZM70.4582 2.73604H74.7457C79.4269 2.73604 81.8332 5.7402 81.8332 10.6256C81.8332 15.4819 79.4269 18.5152 74.7457 18.5152H70.4582V2.73604Z" fill="black"/>
<path d="M95.5645 21.0819C99.9104 21.0819 103.075 18.4569 103.075 13.586V0.417285H100.61V13.4256C100.61 17.0131 98.4812 18.6902 95.5645 18.6902C92.6624 18.6902 90.5333 17.0131 90.5333 13.4256V0.417285H88.0687V13.586C88.0687 18.4569 91.2333 21.0819 95.5645 21.0819Z" fill="black"/>
<path d="M120.17 20.834V18.5152H110.078V0.417285H107.614V20.834H120.17Z" fill="black"/>
<path d="M124.033 20.834L125.943 15.3506H134.533L136.443 20.834H139.054L131.747 0.402703H128.787L121.481 20.834H124.033ZM130.245 2.98395L133.745 13.0465H126.745L130.245 2.98395Z" fill="black"/>
<path d="M144.315 20.834V12.084H146.356L152.584 20.834H155.544L149.113 12.084C153.079 11.9819 155.515 9.77979 155.515 6.27979C155.515 2.54645 153.079 0.417285 148.806 0.417285H141.85V20.834H144.315ZM144.315 2.72145H148.792C151.446 2.72145 152.963 3.91729 152.963 6.27979C152.963 8.65687 151.475 9.89645 148.792 9.89645H144.315V2.72145Z" fill="black"/>
<path d="M9.56865 52.5152L14.352 35.7006L19.1207 52.5152H22.1103L27.9145 32.084H25.3916L20.6082 49.511L15.7228 32.0694H13.0249L8.13949 49.5402L3.35615 32.084H0.774902L6.57907 52.5152H9.56865Z" fill="black"/>
<path d="M30.1811 52.5006L32.0915 47.0173H40.6811L42.5915 52.5006H45.2019L37.8956 32.0694H34.9352L27.629 52.5006H30.1811ZM36.3936 34.6506L39.8936 44.7131H32.8936L36.3936 34.6506Z" fill="black"/>
<path d="M50.4631 52.5006V43.7506H52.5047L58.7318 52.5006H61.6922L55.261 43.7506C59.2276 43.6485 61.6631 41.4465 61.6631 37.9465C61.6631 34.2131 59.2276 32.084 54.9547 32.084H47.9985V52.5006H50.4631ZM50.4631 34.3881H54.9401C57.5943 34.3881 59.111 35.584 59.111 37.9465C59.111 40.3235 57.6235 41.5631 54.9401 41.5631H50.4631V34.3881Z" fill="black"/>
<path d="M72.1398 52.5006C78.1481 52.5006 81.794 48.6069 81.794 42.2923C81.794 35.9631 78.1481 32.084 72.1398 32.084H65.3731V52.5006H72.1398ZM67.8377 34.4027H72.1252C76.8065 34.4027 79.2127 37.4069 79.2127 42.2923C79.2127 47.1485 76.8065 50.1819 72.1252 50.1819H67.8377V34.4027Z" fill="black"/>
<path d="M88.1462 52.5006V43.7506H90.1878L96.4149 52.5006H99.3753L92.9441 43.7506C96.9107 43.6485 99.3462 41.4465 99.3462 37.9465C99.3462 34.2131 96.9107 32.084 92.6378 32.084H85.6816V52.5006H88.1462ZM88.1462 34.3881H92.6232C95.2774 34.3881 96.7941 35.584 96.7941 37.9465C96.7941 40.3235 95.3066 41.5631 92.6232 41.5631H88.1462V34.3881Z" fill="black"/>
<path d="M111.297 52.7631C116.707 52.7631 120.484 48.6506 120.484 42.2923C120.484 35.934 116.707 31.8215 111.297 31.8215C105.886 31.8215 102.109 35.934 102.109 42.2923C102.109 48.6506 105.886 52.7631 111.297 52.7631ZM111.297 50.3715C107.476 50.3715 104.69 47.3235 104.69 42.2923C104.69 37.261 107.476 34.2131 111.297 34.2131C115.132 34.2131 117.917 37.261 117.917 42.2923C117.917 47.3235 115.132 50.3715 111.297 50.3715Z" fill="black"/>
<path d="M131.653 52.5006C135.897 52.5006 138.551 50.6923 138.551 46.8423C138.551 44.261 137.02 42.6277 134.862 42.0152C136.845 41.4173 138.143 39.8714 138.143 37.5235C138.143 33.7319 135.372 32.084 131.332 32.084H124.362V52.5006H131.653ZM126.841 34.359H131.274C133.739 34.359 135.576 35.161 135.576 37.6694C135.576 40.2215 133.753 41.009 131.274 41.009H126.841V34.359ZM126.841 43.2694H131.58C134.234 43.2694 135.97 44.159 135.97 46.7402C135.97 49.336 134.234 50.2256 131.58 50.2256H126.841V43.2694Z" fill="black"/>
<path d="M154.936 52.5006V50.211H144.742V43.3569H154.498V41.0673H144.742V34.3735H154.863V32.084H142.277V52.5006H154.936Z" fill="black"/>
</svg>
