<svg width="561" height="82" viewBox="0 0 561 82" fill="none" xmlns="http://www.w3.org/2000/svg">
<path d="M5.44257 13.5012V2.64244H9.11757V1.25119H0.288818V2.64244H3.96382V13.5012H5.44257Z" fill="black"/>
<path d="M11.9649 13.5012V8.48744C11.9649 7.15744 12.8836 6.32619 14.0474 6.32619C15.2986 6.32619 16.0424 7.09619 16.0424 8.44369V13.5012H17.4161V8.04119C17.4161 6.18619 16.2086 5.01369 14.4324 5.01369C13.4874 5.01369 12.5686 5.33744 11.9649 6.13369V0.901191H10.5824V13.5012H11.9649Z" fill="black"/>
<path d="M23.1438 13.6499C24.2726 13.6499 25.3313 13.3349 26.2413 12.4249L25.5151 11.4712C24.9113 12.0399 24.1501 12.4162 23.2401 12.4162C21.9101 12.4162 20.9038 11.5674 20.7463 9.83494H26.5476C26.5651 9.68619 26.5738 9.50244 26.5738 9.33619C26.5738 6.70244 25.1213 5.01369 23.0388 5.01369C20.8513 5.01369 19.3201 6.70244 19.3201 9.33619C19.3201 11.9874 20.8601 13.6499 23.1438 13.6499ZM20.7551 8.69744C20.9301 7.19244 21.7526 6.26494 23.0213 6.26494C24.2201 6.26494 25.0426 7.20994 25.1738 8.69744H20.7551Z" fill="black"/>
<path d="M36.076 13.5012V3.21994L39.6198 11.3224H41.0985L44.6423 3.16744V13.5012H46.121V1.24244H43.9773L40.3635 9.51994L36.741 1.24244H34.606V13.5012H36.076Z" fill="black"/>
<path d="M52.1548 13.6499C54.4298 13.6499 56.0486 11.8999 56.0486 9.33619C56.0486 6.76369 54.4298 5.01369 52.1548 5.01369C49.8886 5.01369 48.2698 6.76369 48.2698 9.33619C48.2698 11.8999 49.8886 13.6499 52.1548 13.6499ZM52.1548 12.3374C50.7111 12.3374 49.6786 11.1737 49.6786 9.33619C49.6786 7.49869 50.7111 6.32619 52.1548 6.32619C53.5986 6.32619 54.6486 7.49869 54.6486 9.33619C54.6486 11.1737 53.5986 12.3374 52.1548 12.3374Z" fill="black"/>
<path d="M61.0946 13.6499C62.2583 13.6499 63.1246 13.2037 63.7283 12.5037V13.5012H65.0846V0.901191H63.7108V6.15119C63.1071 5.45119 62.2408 5.01369 61.0946 5.01369C59.0296 5.01369 57.4983 6.76369 57.4983 9.33619C57.4983 11.8999 59.0296 13.6499 61.0946 13.6499ZM61.3483 12.3462C59.8783 12.3462 58.9071 11.1299 58.9071 9.33619C58.9071 7.53369 59.8696 6.31744 61.3483 6.31744C62.7921 6.31744 63.7808 7.50744 63.7808 9.33619C63.7808 11.1562 62.7921 12.3462 61.3483 12.3462Z" fill="black"/>
<path d="M70.9099 13.6499C72.7911 13.6499 74.3136 12.5562 74.3136 10.2724V5.17119H72.9399V10.1674C72.9399 11.6462 72.0999 12.3374 70.9099 12.3374C69.7286 12.3374 68.8886 11.6462 68.8886 10.1674V5.17119H67.5149V10.2724C67.5149 12.5562 69.0286 13.6499 70.9099 13.6499Z" fill="black"/>
<path d="M78.1105 13.5012V0.901191H76.7367V13.5012H78.1105Z" fill="black"/>
<path d="M83.6874 13.6499C84.8686 13.6499 85.7349 13.1512 86.3211 12.3812V13.5012H87.6774V5.17119H86.3211V6.27369C85.7436 5.50369 84.8774 5.01369 83.7049 5.01369C81.6224 5.01369 80.0911 6.76369 80.0911 9.33619C80.0911 11.8999 81.6136 13.6499 83.6874 13.6499ZM83.9411 12.3374C82.4711 12.3374 81.5086 11.1299 81.5086 9.33619C81.5086 7.54244 82.4711 6.32619 83.9411 6.32619C85.3848 6.32619 86.3736 7.51619 86.3736 9.33619C86.3736 11.1562 85.3848 12.3374 83.9411 12.3374Z" fill="black"/>
<path d="M91.5602 13.5012V8.66244C91.5602 7.28869 92.3214 6.38744 93.4764 6.38744C93.8789 6.38744 94.3339 6.47494 94.6664 6.63244L94.9552 5.24994C94.6052 5.09244 94.2027 5.01369 93.7302 5.01369C92.7764 5.01369 92.0152 5.39869 91.5252 6.15994V5.17119H90.1864V13.5012H91.5602Z" fill="black"/>
<path d="M106.516 13.5099L109.386 3.42119L112.247 13.5099H114.041L117.523 1.25119H116.01L113.14 11.7074L110.208 1.24244H108.59L105.658 11.7249L102.788 1.25119H101.24L104.722 13.5099H106.516Z" fill="black"/>
<path d="M121.473 13.6499C122.654 13.6499 123.52 13.1512 124.106 12.3812V13.5012H125.463V5.17119H124.106V6.27369C123.529 5.50369 122.663 5.01369 121.49 5.01369C119.408 5.01369 117.876 6.76369 117.876 9.33619C117.876 11.8999 119.399 13.6499 121.473 13.6499ZM121.726 12.3374C120.256 12.3374 119.294 11.1299 119.294 9.33619C119.294 7.54244 120.256 6.32619 121.726 6.32619C123.17 6.32619 124.159 7.51619 124.159 9.33619C124.159 11.1562 123.17 12.3374 121.726 12.3374Z" fill="black"/>
<path d="M129.345 13.5012V8.66244C129.345 7.28869 130.107 6.38744 131.262 6.38744C131.664 6.38744 132.119 6.47494 132.452 6.63244L132.74 5.24994C132.39 5.09244 131.988 5.01369 131.515 5.01369C130.562 5.01369 129.8 5.39869 129.31 6.15994V5.17119H127.972V13.5012H129.345Z" fill="black"/>
<path d="M137.11 13.6499C138.274 13.6499 139.14 13.2037 139.744 12.5037V13.5012H141.1V0.901191H139.726V6.15119C139.122 5.45119 138.256 5.01369 137.11 5.01369C135.045 5.01369 133.514 6.76369 133.514 9.33619C133.514 11.8999 135.045 13.6499 137.11 13.6499ZM137.364 12.3462C135.894 12.3462 134.922 11.1299 134.922 9.33619C134.922 7.53369 135.885 6.31744 137.364 6.31744C138.807 6.31744 139.796 7.50744 139.796 9.33619C139.796 11.1562 138.807 12.3462 137.364 12.3462Z" fill="black"/>
<path d="M144.983 13.5012V8.66244C144.983 7.28869 145.744 6.38744 146.899 6.38744C147.301 6.38744 147.756 6.47494 148.089 6.63244L148.378 5.24994C148.028 5.09244 147.625 5.01369 147.153 5.01369C146.199 5.01369 145.438 5.39869 144.948 6.15994V5.17119H143.609V13.5012H144.983Z" fill="black"/>
<path d="M153.036 13.6499C155.311 13.6499 156.929 11.8999 156.929 9.33619C156.929 6.76369 155.311 5.01369 153.036 5.01369C150.769 5.01369 149.151 6.76369 149.151 9.33619C149.151 11.8999 150.769 13.6499 153.036 13.6499ZM153.036 12.3374C151.592 12.3374 150.559 11.1737 150.559 9.33619C150.559 7.49869 151.592 6.32619 153.036 6.32619C154.479 6.32619 155.529 7.49869 155.529 9.33619C155.529 11.1737 154.479 12.3374 153.036 12.3374Z" fill="black"/>
<path d="M162.885 13.6499C164.959 13.6499 166.482 11.8999 166.482 9.33619C166.482 6.76369 164.959 5.01369 162.885 5.01369C161.73 5.01369 160.873 5.47744 160.278 6.20369V0.901191H158.904V13.5012H160.26V12.4424C160.855 13.1774 161.722 13.6499 162.885 13.6499ZM162.64 12.3462C161.197 12.3462 160.199 11.1562 160.199 9.33619C160.199 7.50744 161.197 6.31744 162.64 6.31744C164.11 6.31744 165.073 7.53369 165.073 9.33619C165.073 11.1299 164.11 12.3462 162.64 12.3462Z" fill="black"/>
<path d="M171.756 13.6499C172.885 13.6499 173.944 13.3349 174.854 12.4249L174.127 11.4712C173.524 12.0399 172.762 12.4162 171.852 12.4162C170.522 12.4162 169.516 11.5674 169.359 9.83494H175.16C175.177 9.68619 175.186 9.50244 175.186 9.33619C175.186 6.70244 173.734 5.01369 171.651 5.01369C169.464 5.01369 167.932 6.70244 167.932 9.33619C167.932 11.9874 169.472 13.6499 171.756 13.6499ZM169.367 8.69744C169.542 7.19244 170.365 6.26494 171.634 6.26494C172.832 6.26494 173.655 7.20994 173.786 8.69744H169.367Z" fill="black"/>
<path d="M186.342 13.6499C187.48 13.6499 188.468 13.1862 189.133 12.3374L188.241 11.4537C187.751 11.9874 187.086 12.3374 186.333 12.3374C184.951 12.3374 183.918 11.1912 183.918 9.33619C183.918 7.48119 184.951 6.32619 186.333 6.32619C187.095 6.32619 187.716 6.65869 188.223 7.20994L189.133 6.32619C188.477 5.47744 187.48 5.01369 186.342 5.01369C184.05 5.01369 182.51 6.76369 182.51 9.33619C182.51 11.8999 184.05 13.6499 186.342 13.6499Z" fill="black"/>
<path d="M192.27 13.5012V8.66244C192.27 7.28869 193.031 6.38744 194.186 6.38744C194.588 6.38744 195.043 6.47494 195.376 6.63244L195.665 5.24994C195.315 5.09244 194.912 5.01369 194.44 5.01369C193.486 5.01369 192.725 5.39869 192.235 6.15994V5.17119H190.896V13.5012H192.27Z" fill="black"/>
<path d="M200.262 13.6499C201.39 13.6499 202.449 13.3349 203.359 12.4249L202.633 11.4712C202.029 12.0399 201.268 12.4162 200.358 12.4162C199.028 12.4162 198.022 11.5674 197.864 9.83494H203.665C203.683 9.68619 203.692 9.50244 203.692 9.33619C203.692 6.70244 202.239 5.01369 200.157 5.01369C197.969 5.01369 196.438 6.70244 196.438 9.33619C196.438 11.9874 197.978 13.6499 200.262 13.6499ZM197.873 8.69744C198.048 7.19244 198.87 6.26494 200.139 6.26494C201.338 6.26494 202.16 7.20994 202.292 8.69744H197.873Z" fill="black"/>
<path d="M208.733 13.6499C209.914 13.6499 210.78 13.1512 211.367 12.3812V13.5012H212.723V5.17119H211.367V6.27369C210.789 5.50369 209.923 5.01369 208.75 5.01369C206.668 5.01369 205.137 6.76369 205.137 9.33619C205.137 11.8999 206.659 13.6499 208.733 13.6499ZM208.987 12.3374C207.517 12.3374 206.554 11.1299 206.554 9.33619C206.554 7.54244 207.517 6.32619 208.987 6.32619C210.43 6.32619 211.419 7.51619 211.419 9.33619C211.419 11.1562 210.43 12.3374 208.987 12.3374Z" fill="black"/>
<path d="M218.557 13.6499C219.484 13.6499 220.211 13.3524 220.771 12.9324L220.184 11.8562C219.791 12.1362 219.283 12.3287 218.758 12.3287C217.918 12.3287 217.341 11.8474 217.341 10.7362V6.43994H220.403V5.16244H217.341V2.68619H215.949V5.16244H214.357V6.43994H215.949V10.8237C215.949 12.7312 216.929 13.6499 218.557 13.6499Z" fill="black"/>
<path d="M225.537 13.6499C226.666 13.6499 227.725 13.3349 228.635 12.4249L227.909 11.4712C227.305 12.0399 226.544 12.4162 225.634 12.4162C224.304 12.4162 223.298 11.5674 223.14 9.83494H228.941C228.959 9.68619 228.967 9.50244 228.967 9.33619C228.967 6.70244 227.515 5.01369 225.432 5.01369C223.245 5.01369 221.714 6.70244 221.714 9.33619C221.714 11.9874 223.254 13.6499 225.537 13.6499ZM223.149 8.69744C223.324 7.19244 224.146 6.26494 225.415 6.26494C226.614 6.26494 227.436 7.20994 227.568 8.69744H223.149Z" fill="black"/>
<path d="M234.009 13.6499C235.173 13.6499 236.039 13.2037 236.642 12.5037V13.5012H237.999V0.901191H236.625V6.15119C236.021 5.45119 235.155 5.01369 234.009 5.01369C231.944 5.01369 230.412 6.76369 230.412 9.33619C230.412 11.8999 231.944 13.6499 234.009 13.6499ZM234.262 12.3462C232.792 12.3462 231.821 11.1299 231.821 9.33619C231.821 7.53369 232.784 6.31744 234.262 6.31744C235.706 6.31744 236.695 7.50744 236.695 9.33619C236.695 11.1562 235.706 12.3462 234.262 12.3462Z" fill="black"/>
<path d="M250.367 13.6499C252.441 13.6499 253.964 11.8999 253.964 9.33619C253.964 6.76369 252.441 5.01369 250.367 5.01369C249.212 5.01369 248.355 5.47744 247.76 6.20369V0.901191H246.386V13.5012H247.742V12.4424C248.337 13.1774 249.204 13.6499 250.367 13.6499ZM250.122 12.3462C248.679 12.3462 247.681 11.1562 247.681 9.33619C247.681 7.50744 248.679 6.31744 250.122 6.31744C251.592 6.31744 252.555 7.53369 252.555 9.33619C252.555 11.1299 251.592 12.3462 250.122 12.3462Z" fill="black"/>
<path d="M256.804 16.8524L262.596 5.17119H261.109L258.632 10.3687L256.069 5.17119H254.555L257.897 11.8037L255.316 16.8524H256.804Z" fill="black"/>
<path d="M273.42 13.6499C275.853 13.6499 277.795 12.3987 277.795 10.0624C277.795 8.09369 276.413 7.14869 274.435 6.74619L273.394 6.53619C271.758 6.20369 270.979 5.60869 270.979 4.54994C270.979 3.28119 272.081 2.51994 273.621 2.51994C274.916 2.51994 275.949 2.99244 276.745 3.68369L277.603 2.58994C276.605 1.67994 275.319 1.10244 273.621 1.10244C271.25 1.10244 269.439 2.42369 269.43 4.61119C269.43 6.44869 270.655 7.55119 272.676 7.93619L273.779 8.14619C275.397 8.45244 276.246 9.04744 276.246 10.1762C276.246 11.5149 275.013 12.2412 273.403 12.2412C272.003 12.2412 270.734 11.6199 270.016 10.8587L269.098 11.9262C270.086 12.9587 271.696 13.6499 273.42 13.6499Z" fill="black"/>
<path d="M283.036 13.6499C283.963 13.6499 284.69 13.3524 285.25 12.9324L284.663 11.8562C284.27 12.1362 283.762 12.3287 283.237 12.3287C282.397 12.3287 281.82 11.8474 281.82 10.7362V6.43994H284.882V5.16244H281.82V2.68619H280.428V5.16244H278.836V6.43994H280.428V10.8237C280.428 12.7312 281.408 13.6499 283.036 13.6499Z" fill="black"/>
<path d="M290.068 13.6499C291.949 13.6499 293.472 12.5562 293.472 10.2724V5.17119H292.098V10.1674C292.098 11.6462 291.258 12.3374 290.068 12.3374C288.887 12.3374 288.047 11.6462 288.047 10.1674V5.17119H286.673V10.2724C286.673 12.5562 288.187 13.6499 290.068 13.6499Z" fill="black"/>
<path d="M298.966 13.6499C300.13 13.6499 300.996 13.2037 301.6 12.5037V13.5012H302.956V0.901191H301.583V6.15119C300.979 5.45119 300.113 5.01369 298.966 5.01369C296.901 5.01369 295.37 6.76369 295.37 9.33619C295.37 11.8999 296.901 13.6499 298.966 13.6499ZM299.22 12.3462C297.75 12.3462 296.779 11.1299 296.779 9.33619C296.779 7.53369 297.741 6.31744 299.22 6.31744C300.664 6.31744 301.653 7.50744 301.653 9.33619C301.653 11.1562 300.664 12.3462 299.22 12.3462Z" fill="black"/>
<path d="M306.157 3.17619C306.682 3.17619 307.084 2.78244 307.084 2.25744C307.084 1.74119 306.682 1.32994 306.157 1.32994C305.64 1.32994 305.238 1.73244 305.238 2.25744C305.238 2.77369 305.64 3.17619 306.157 3.17619ZM306.848 13.5012V5.17119H305.465V13.5012H306.848Z" fill="black"/>
<path d="M312.722 13.6499C314.997 13.6499 316.616 11.8999 316.616 9.33619C316.616 6.76369 314.997 5.01369 312.722 5.01369C310.456 5.01369 308.837 6.76369 308.837 9.33619C308.837 11.8999 310.456 13.6499 312.722 13.6499ZM312.722 12.3374C311.278 12.3374 310.246 11.1737 310.246 9.33619C310.246 7.49869 311.278 6.32619 312.722 6.32619C314.166 6.32619 315.216 7.49869 315.216 9.33619C315.216 11.1737 314.166 12.3374 312.722 12.3374Z" fill="black"/>
<path d="M333.875 13.5099V1.25119H332.405V10.7537L326.035 1.24244H324.653V13.5012H326.123V4.01619L332.484 13.5099H333.875Z" fill="black"/>
<path d="M337.26 3.17619C337.785 3.17619 338.187 2.78244 338.187 2.25744C338.187 1.74119 337.785 1.32994 337.26 1.32994C336.743 1.32994 336.341 1.73244 336.341 2.25744C336.341 2.77369 336.743 3.17619 337.26 3.17619ZM337.951 13.5012V5.17119H336.568V13.5012H337.951Z" fill="black"/>
<path d="M343.772 13.6499C344.91 13.6499 345.899 13.1862 346.564 12.3374L345.671 11.4537C345.181 11.9874 344.516 12.3374 343.764 12.3374C342.381 12.3374 341.349 11.1912 341.349 9.33619C341.349 7.48119 342.381 6.32619 343.764 6.32619C344.525 6.32619 345.146 6.65869 345.654 7.20994L346.564 6.32619C345.907 5.47744 344.91 5.01369 343.772 5.01369C341.48 5.01369 339.94 6.76369 339.94 9.33619C339.94 11.8999 341.48 13.6499 343.772 13.6499Z" fill="black"/>
<path d="M349.709 13.5012V8.48744C349.709 7.15744 350.628 6.32619 351.791 6.32619C353.042 6.32619 353.786 7.09619 353.786 8.44369V13.5012H355.16V8.04119C355.16 6.18619 353.952 5.01369 352.176 5.01369C351.231 5.01369 350.312 5.33744 349.709 6.13369V0.901191H348.326V13.5012H349.709Z" fill="black"/>
<path d="M360.949 13.6499C363.224 13.6499 364.843 11.8999 364.843 9.33619C364.843 6.76369 363.224 5.01369 360.949 5.01369C358.683 5.01369 357.064 6.76369 357.064 9.33619C357.064 11.8999 358.683 13.6499 360.949 13.6499ZM360.949 12.3374C359.505 12.3374 358.473 11.1737 358.473 9.33619C358.473 7.49869 359.505 6.32619 360.949 6.32619C362.393 6.32619 363.443 7.49869 363.443 9.33619C363.443 11.1737 362.393 12.3374 360.949 12.3374Z" fill="black"/>
<path d="M368.191 13.5012V0.901191H366.817V13.5012H368.191Z" fill="black"/>
<path d="M373.191 13.6499C375.186 13.6499 376.489 12.6612 376.489 11.1037C376.489 9.83494 375.641 9.06494 374.074 8.78494L373.252 8.63619C372.237 8.45244 371.729 8.10244 371.729 7.44619C371.729 6.70244 372.394 6.23869 373.409 6.23869C374.311 6.23869 375.194 6.57994 375.702 6.93869L376.288 5.88869C375.553 5.35494 374.538 5.02244 373.366 5.02244C371.546 5.02244 370.321 5.95869 370.321 7.48119C370.321 8.67994 371.064 9.55494 372.736 9.83494L373.549 9.97494C374.617 10.1587 375.089 10.5699 375.089 11.1824C375.089 11.9874 374.328 12.4337 373.164 12.4337C372.036 12.4337 371.274 12.0749 370.714 11.6112L370.076 12.6437C370.942 13.3524 372.088 13.6499 373.191 13.6499Z" fill="black"/>
<path d="M381.713 13.6499C383.988 13.6499 385.607 11.8999 385.607 9.33619C385.607 6.76369 383.988 5.01369 381.713 5.01369C379.447 5.01369 377.828 6.76369 377.828 9.33619C377.828 11.8999 379.447 13.6499 381.713 13.6499ZM381.713 12.3374C380.269 12.3374 379.237 11.1737 379.237 9.33619C379.237 7.49869 380.269 6.32619 381.713 6.32619C383.157 6.32619 384.207 7.49869 384.207 9.33619C384.207 11.1737 383.157 12.3374 381.713 12.3374Z" fill="black"/>
<path d="M388.964 13.5012V8.48744C388.964 7.15744 389.883 6.32619 391.047 6.32619C392.298 6.32619 393.033 7.10494 393.033 8.44369V13.5012H394.415V8.04119C394.415 6.18619 393.208 5.01369 391.44 5.01369C390.478 5.01369 389.524 5.36369 388.929 6.22119V5.17119H387.582V13.5012H388.964Z" fill="black"/>
<path d="M404.747 13.5012V6.43119H407.582V5.17119H404.747V3.70994C404.747 2.65994 405.167 2.06494 406.103 2.06494C406.646 2.06494 407.144 2.23994 407.529 2.46744L408.028 1.32994C407.512 0.997441 406.829 0.752441 405.946 0.752441C404.204 0.752441 403.373 1.91619 403.373 3.70119V5.17119H401.728V6.43119H403.373V13.5012H404.747Z" fill="black"/>
<path d="M412.338 13.6499C414.613 13.6499 416.231 11.8999 416.231 9.33619C416.231 6.76369 414.613 5.01369 412.338 5.01369C410.071 5.01369 408.453 6.76369 408.453 9.33619C408.453 11.8999 410.071 13.6499 412.338 13.6499ZM412.338 12.3374C410.894 12.3374 409.861 11.1737 409.861 9.33619C409.861 7.49869 410.894 6.32619 412.338 6.32619C413.781 6.32619 414.831 7.49869 414.831 9.33619C414.831 11.1737 413.781 12.3374 412.338 12.3374Z" fill="black"/>
<path d="M419.58 13.5012V8.66244C419.58 7.28869 420.341 6.38744 421.496 6.38744C421.899 6.38744 422.354 6.47494 422.686 6.63244L422.975 5.24994C422.625 5.09244 422.222 5.01369 421.75 5.01369C420.796 5.01369 420.035 5.39869 419.545 6.15994V5.17119H418.206V13.5012H419.58Z" fill="black"/>
<path d="M433.511 13.6499C434.438 13.6499 435.164 13.3524 435.724 12.9324L435.138 11.8562C434.744 12.1362 434.237 12.3287 433.712 12.3287C432.872 12.3287 432.294 11.8474 432.294 10.7362V6.43994H435.357V5.16244H432.294V2.68619H430.903V5.16244H429.311V6.43994H430.903V10.8237C430.903 12.7312 431.883 13.6499 433.511 13.6499Z" fill="black"/>
<path d="M438.626 13.5012V8.48744C438.626 7.15744 439.545 6.32619 440.709 6.32619C441.96 6.32619 442.704 7.09619 442.704 8.44369V13.5012H444.078V8.04119C444.078 6.18619 442.87 5.01369 441.094 5.01369C440.149 5.01369 439.23 5.33744 438.626 6.13369V0.901191H437.244V13.5012H438.626Z" fill="black"/>
<path d="M447.198 3.17619C447.723 3.17619 448.125 2.78244 448.125 2.25744C448.125 1.74119 447.723 1.32994 447.198 1.32994C446.682 1.32994 446.279 1.73244 446.279 2.25744C446.279 2.77369 446.682 3.17619 447.198 3.17619ZM447.889 13.5012V5.17119H446.507V13.5012H447.889Z" fill="black"/>
<path d="M452.897 13.6499C454.892 13.6499 456.196 12.6612 456.196 11.1037C456.196 9.83494 455.347 9.06494 453.781 8.78494L452.958 8.63619C451.943 8.45244 451.435 8.10244 451.435 7.44619C451.435 6.70244 452.1 6.23869 453.115 6.23869C454.017 6.23869 454.901 6.57994 455.408 6.93869L455.994 5.88869C455.259 5.35494 454.244 5.02244 453.072 5.02244C451.252 5.02244 450.027 5.95869 450.027 7.48119C450.027 8.67994 450.771 9.55494 452.442 9.83494L453.255 9.97494C454.323 10.1587 454.796 10.5699 454.796 11.1824C454.796 11.9874 454.034 12.4337 452.871 12.4337C451.742 12.4337 450.981 12.0749 450.421 11.6112L449.782 12.6437C450.648 13.3524 451.794 13.6499 452.897 13.6499Z" fill="black"/>
<path d="M467.262 13.6499C468.4 13.6499 469.389 13.1862 470.054 12.3374L469.161 11.4537C468.671 11.9874 468.006 12.3374 467.254 12.3374C465.871 12.3374 464.839 11.1912 464.839 9.33619C464.839 7.48119 465.871 6.32619 467.254 6.32619C468.015 6.32619 468.636 6.65869 469.144 7.20994L470.054 6.32619C469.397 5.47744 468.4 5.01369 467.262 5.01369C464.97 5.01369 463.43 6.76369 463.43 9.33619C463.43 11.8999 464.97 13.6499 467.262 13.6499Z" fill="black"/>
<path d="M475.022 13.6499C477.297 13.6499 478.916 11.8999 478.916 9.33619C478.916 6.76369 477.297 5.01369 475.022 5.01369C472.756 5.01369 471.137 6.76369 471.137 9.33619C471.137 11.8999 472.756 13.6499 475.022 13.6499ZM475.022 12.3374C473.579 12.3374 472.546 11.1737 472.546 9.33619C472.546 7.49869 473.579 6.32619 475.022 6.32619C476.466 6.32619 477.516 7.49869 477.516 9.33619C477.516 11.1737 476.466 12.3374 475.022 12.3374Z" fill="black"/>
<path d="M482.265 13.5012V0.901191H480.891V13.5012H482.265Z" fill="black"/>
<path d="M486.144 13.5012V0.901191H484.77V13.5012H486.144Z" fill="black"/>
<path d="M491.721 13.6499C492.902 13.6499 493.768 13.1512 494.355 12.3812V13.5012H495.711V5.17119H494.355V6.27369C493.777 5.50369 492.911 5.01369 491.738 5.01369C489.656 5.01369 488.125 6.76369 488.125 9.33619C488.125 11.8999 489.647 13.6499 491.721 13.6499ZM491.975 12.3374C490.505 12.3374 489.542 11.1299 489.542 9.33619C489.542 7.54244 490.505 6.32619 491.975 6.32619C493.418 6.32619 494.407 7.51619 494.407 9.33619C494.407 11.1562 493.418 12.3374 491.975 12.3374Z" fill="black"/>
<path d="M502.201 13.6499C504.275 13.6499 505.797 11.8999 505.797 9.33619C505.797 6.76369 504.275 5.01369 502.201 5.01369C501.046 5.01369 500.189 5.47744 499.594 6.20369V0.901191H498.22V13.5012H499.576V12.4424C500.171 13.1774 501.037 13.6499 502.201 13.6499ZM501.956 12.3462C500.512 12.3462 499.515 11.1562 499.515 9.33619C499.515 7.50744 500.512 6.31744 501.956 6.31744C503.426 6.31744 504.389 7.53369 504.389 9.33619C504.389 11.1299 503.426 12.3462 501.956 12.3462Z" fill="black"/>
<path d="M511.133 13.6499C513.408 13.6499 515.027 11.8999 515.027 9.33619C515.027 6.76369 513.408 5.01369 511.133 5.01369C508.867 5.01369 507.248 6.76369 507.248 9.33619C507.248 11.8999 508.867 13.6499 511.133 13.6499ZM511.133 12.3374C509.689 12.3374 508.657 11.1737 508.657 9.33619C508.657 7.49869 509.689 6.32619 511.133 6.32619C512.577 6.32619 513.627 7.49869 513.627 9.33619C513.627 11.1737 512.577 12.3374 511.133 12.3374Z" fill="black"/>
<path d="M518.375 13.5012V8.66244C518.375 7.28869 519.137 6.38744 520.292 6.38744C520.694 6.38744 521.149 6.47494 521.482 6.63244L521.77 5.24994C521.42 5.09244 521.018 5.01369 520.545 5.01369C519.592 5.01369 518.83 5.39869 518.34 6.15994V5.17119H517.002V13.5012H518.375Z" fill="black"/>
<path d="M526.14 13.6499C527.321 13.6499 528.187 13.1512 528.774 12.3812V13.5012H530.13V5.17119H528.774V6.27369C528.196 5.50369 527.33 5.01369 526.157 5.01369C524.075 5.01369 522.544 6.76369 522.544 9.33619C522.544 11.8999 524.066 13.6499 526.14 13.6499ZM526.394 12.3374C524.924 12.3374 523.961 11.1299 523.961 9.33619C523.961 7.54244 524.924 6.32619 526.394 6.32619C527.837 6.32619 528.826 7.51619 528.826 9.33619C528.826 11.1562 527.837 12.3374 526.394 12.3374Z" fill="black"/>
<path d="M535.964 13.6499C536.891 13.6499 537.618 13.3524 538.178 12.9324L537.591 11.8562C537.198 12.1362 536.69 12.3287 536.165 12.3287C535.325 12.3287 534.748 11.8474 534.748 10.7362V6.43994H537.81V5.16244H534.748V2.68619H533.356V5.16244H531.764V6.43994H533.356V10.8237C533.356 12.7312 534.336 13.6499 535.964 13.6499Z" fill="black"/>
<path d="M540.388 3.17619C540.913 3.17619 541.316 2.78244 541.316 2.25744C541.316 1.74119 540.913 1.32994 540.388 1.32994C539.872 1.32994 539.469 1.73244 539.469 2.25744C539.469 2.77369 539.872 3.17619 540.388 3.17619ZM541.08 13.5012V5.17119H539.697V13.5012H541.08Z" fill="black"/>
<path d="M546.953 13.6499C549.228 13.6499 550.847 11.8999 550.847 9.33619C550.847 6.76369 549.228 5.01369 546.953 5.01369C544.687 5.01369 543.068 6.76369 543.068 9.33619C543.068 11.8999 544.687 13.6499 546.953 13.6499ZM546.953 12.3374C545.51 12.3374 544.477 11.1737 544.477 9.33619C544.477 7.49869 545.51 6.32619 546.953 6.32619C548.397 6.32619 549.447 7.49869 549.447 9.33619C549.447 11.1737 548.397 12.3374 546.953 12.3374Z" fill="black"/>
<path d="M554.205 13.5012V8.48744C554.205 7.15744 555.123 6.32619 556.287 6.32619C557.538 6.32619 558.273 7.10494 558.273 8.44369V13.5012H559.656V8.04119C559.656 6.18619 558.448 5.01369 556.681 5.01369C555.718 5.01369 554.764 5.36369 554.169 6.22119V5.17119H552.822V13.5012H554.205Z" fill="black"/>
<path d="M3.39507 35.1679V28.0979H6.23007V26.8379H3.39507V25.3766C3.39507 24.3266 3.81507 23.7316 4.75132 23.7316C5.29382 23.7316 5.79257 23.9066 6.17757 24.1341L6.67632 22.9966C6.16007 22.6641 5.47757 22.4191 4.59382 22.4191C2.85257 22.4191 2.02132 23.5829 2.02132 25.3679V26.8379H0.376318V28.0979H2.02132V35.1679H3.39507Z" fill="black"/>
<path d="M10.9858 35.3166C13.2608 35.3166 14.8796 33.5666 14.8796 31.0029C14.8796 28.4304 13.2608 26.6804 10.9858 26.6804C8.71958 26.6804 7.10083 28.4304 7.10083 31.0029C7.10083 33.5666 8.71958 35.3166 10.9858 35.3166ZM10.9858 34.0041C9.54208 34.0041 8.50958 32.8404 8.50958 31.0029C8.50958 29.1654 9.54208 27.9929 10.9858 27.9929C12.4296 27.9929 13.4796 29.1654 13.4796 31.0029C13.4796 32.8404 12.4296 34.0041 10.9858 34.0041Z" fill="black"/>
<path d="M20.1618 35.3166C21.2993 35.3166 22.2881 34.8529 22.9531 34.0041L22.0606 33.1204C21.5706 33.6541 20.9056 34.0041 20.1531 34.0041C18.7706 34.0041 17.7381 32.8579 17.7381 31.0029C17.7381 29.1479 18.7706 27.9929 20.1531 27.9929C20.9143 27.9929 21.5356 28.3254 22.0431 28.8766L22.9531 27.9929C22.2968 27.1441 21.2993 26.6804 20.1618 26.6804C17.8693 26.6804 16.3293 28.4304 16.3293 31.0029C16.3293 33.5666 17.8693 35.3166 20.1618 35.3166Z" fill="black"/>
<path d="M28.0319 35.3166C29.9132 35.3166 31.4357 34.2229 31.4357 31.9391V26.8379H30.0619V31.8341C30.0619 33.3129 29.2219 34.0041 28.0319 34.0041C26.8507 34.0041 26.0107 33.3129 26.0107 31.8341V26.8379H24.6369V31.9391C24.6369 34.2229 26.1507 35.3166 28.0319 35.3166Z" fill="black"/>
<path d="M36.3525 35.3166C38.3475 35.3166 39.6512 34.3279 39.6512 32.7704C39.6512 31.5016 38.8025 30.7316 37.2362 30.4516L36.4137 30.3029C35.3987 30.1191 34.8912 29.7691 34.8912 29.1129C34.8912 28.3691 35.5562 27.9054 36.5712 27.9054C37.4725 27.9054 38.3562 28.2466 38.8637 28.6054L39.45 27.5554C38.715 27.0216 37.7 26.6891 36.5275 26.6891C34.7075 26.6891 33.4825 27.6254 33.4825 29.1479C33.4825 30.3466 34.2262 31.2216 35.8975 31.5016L36.7112 31.6416C37.7787 31.8254 38.2512 32.2366 38.2512 32.8491C38.2512 33.6541 37.49 34.1004 36.3262 34.1004C35.1975 34.1004 34.4362 33.7416 33.8762 33.2779L33.2375 34.3104C34.1037 35.0191 35.25 35.3166 36.3525 35.3166Z" fill="black"/>
<path d="M44.8137 35.3166C45.9425 35.3166 47.0012 35.0016 47.9112 34.0916L47.185 33.1379C46.5812 33.7066 45.82 34.0829 44.91 34.0829C43.58 34.0829 42.5737 33.2341 42.4162 31.5016H48.2175C48.235 31.3529 48.2437 31.1691 48.2437 31.0029C48.2437 28.3691 46.7912 26.6804 44.7087 26.6804C42.5212 26.6804 40.99 28.3691 40.99 31.0029C40.99 33.6541 42.53 35.3166 44.8137 35.3166ZM42.425 30.3641C42.6 28.8591 43.4225 27.9316 44.6912 27.9316C45.89 27.9316 46.7125 28.8766 46.8437 30.3641H42.425Z" fill="black"/>
<path d="M52.6904 35.3166C54.6854 35.3166 55.9891 34.3279 55.9891 32.7704C55.9891 31.5016 55.1404 30.7316 53.5741 30.4516L52.7516 30.3029C51.7366 30.1191 51.2291 29.7691 51.2291 29.1129C51.2291 28.3691 51.8941 27.9054 52.9091 27.9054C53.8104 27.9054 54.6941 28.2466 55.2016 28.6054L55.7879 27.5554C55.0529 27.0216 54.0379 26.6891 52.8654 26.6891C51.0454 26.6891 49.8204 27.6254 49.8204 29.1479C49.8204 30.3466 50.5641 31.2216 52.2354 31.5016L53.0491 31.6416C54.1166 31.8254 54.5891 32.2366 54.5891 32.8491C54.5891 33.6541 53.8279 34.1004 52.6641 34.1004C51.5354 34.1004 50.7741 33.7416 50.2141 33.2779L49.5754 34.3104C50.4416 35.0191 51.5879 35.3166 52.6904 35.3166Z" fill="black"/>
<path d="M66.8504 35.3166C69.1254 35.3166 70.7442 33.5666 70.7442 31.0029C70.7442 28.4304 69.1254 26.6804 66.8504 26.6804C64.5842 26.6804 62.9654 28.4304 62.9654 31.0029C62.9654 33.5666 64.5842 35.3166 66.8504 35.3166ZM66.8504 34.0041C65.4067 34.0041 64.3742 32.8404 64.3742 31.0029C64.3742 29.1654 65.4067 27.9929 66.8504 27.9929C68.2942 27.9929 69.3442 29.1654 69.3442 31.0029C69.3442 32.8404 68.2942 34.0041 66.8504 34.0041Z" fill="black"/>
<path d="M74.1014 35.1679V30.1541C74.1014 28.8241 75.0202 27.9929 76.1839 27.9929C77.4352 27.9929 78.1702 28.7716 78.1702 30.1104V35.1679H79.5527V29.7079C79.5527 27.8529 78.3452 26.6804 76.5777 26.6804C75.6152 26.6804 74.6614 27.0304 74.0664 27.8879V26.8379H72.7189V35.1679H74.1014Z" fill="black"/>
<path d="M91.5833 35.3166C93.6571 35.3166 95.1796 33.5666 95.1796 31.0029C95.1796 28.4304 93.6571 26.6804 91.5833 26.6804C90.4283 26.6804 89.5708 27.1441 88.9758 27.8704V22.5679H87.6021V35.1679H88.9583V34.1091C89.5533 34.8441 90.4196 35.3166 91.5833 35.3166ZM91.3383 34.0129C89.8946 34.0129 88.8971 32.8229 88.8971 31.0029C88.8971 29.1741 89.8946 27.9841 91.3383 27.9841C92.8083 27.9841 93.7708 29.2004 93.7708 31.0029C93.7708 32.7966 92.8083 34.0129 91.3383 34.0129Z" fill="black"/>
<path d="M100.515 35.3166C102.79 35.3166 104.409 33.5666 104.409 31.0029C104.409 28.4304 102.79 26.6804 100.515 26.6804C98.249 26.6804 96.6303 28.4304 96.6303 31.0029C96.6303 33.5666 98.249 35.3166 100.515 35.3166ZM100.515 34.0041C99.0715 34.0041 98.039 32.8404 98.039 31.0029C98.039 29.1654 99.0715 27.9929 100.515 27.9929C101.959 27.9929 103.009 29.1654 103.009 31.0029C103.009 32.8404 101.959 34.0041 100.515 34.0041Z" fill="black"/>
<path d="M107.758 35.1679V22.5679H106.384V35.1679H107.758Z" fill="black"/>
<path d="M113.334 35.3166C114.498 35.3166 115.364 34.8704 115.968 34.1704V35.1679H117.324V22.5679H115.951V27.8179C115.347 27.1179 114.481 26.6804 113.334 26.6804C111.269 26.6804 109.738 28.4304 109.738 31.0029C109.738 33.5666 111.269 35.3166 113.334 35.3166ZM113.588 34.0129C112.118 34.0129 111.147 32.7966 111.147 31.0029C111.147 29.2004 112.109 27.9841 113.588 27.9841C115.032 27.9841 116.021 29.1741 116.021 31.0029C116.021 32.8229 115.032 34.0129 113.588 34.0129Z" fill="black"/>
<path d="M120.691 37.3904L121.584 32.9804H120.044L119.527 37.3904H120.691Z" fill="black"/>
<path d="M130.827 38.5191V34.1266C131.422 34.8529 132.279 35.3166 133.434 35.3166C135.508 35.3166 137.03 33.5666 137.03 31.0029C137.03 28.4391 135.508 26.6804 133.434 26.6804C132.27 26.6804 131.404 27.1529 130.809 27.8966V26.8379H129.453V38.5191H130.827ZM133.189 34.0129C131.745 34.0129 130.748 32.8229 130.748 31.0029C130.748 29.1741 131.745 27.9929 133.189 27.9929C134.659 27.9929 135.622 29.2004 135.622 31.0029C135.622 32.7966 134.659 34.0129 133.189 34.0129Z" fill="black"/>
<path d="M142.366 35.3166C144.641 35.3166 146.26 33.5666 146.26 31.0029C146.26 28.4304 144.641 26.6804 142.366 26.6804C140.1 26.6804 138.481 28.4304 138.481 31.0029C138.481 33.5666 140.1 35.3166 142.366 35.3166ZM142.366 34.0041C140.922 34.0041 139.89 32.8404 139.89 31.0029C139.89 29.1654 140.922 27.9929 142.366 27.9929C143.81 27.9929 144.86 29.1654 144.86 31.0029C144.86 32.8404 143.81 34.0041 142.366 34.0041Z" fill="black"/>
<path d="M151.449 35.1679L153.549 28.5091L155.666 35.1679H157.233L159.963 26.8379H158.536L156.428 33.5929L154.275 26.8379H152.858L150.723 33.5929L148.614 26.8379H147.161L149.891 35.1679H151.449Z" fill="black"/>
<path d="M164.744 35.3166C165.873 35.3166 166.931 35.0016 167.841 34.0916L167.115 33.1379C166.511 33.7066 165.75 34.0829 164.84 34.0829C163.51 34.0829 162.504 33.2341 162.346 31.5016H168.148C168.165 31.3529 168.174 31.1691 168.174 31.0029C168.174 28.3691 166.721 26.6804 164.639 26.6804C162.451 26.6804 160.92 28.3691 160.92 31.0029C160.92 33.6541 162.46 35.3166 164.744 35.3166ZM162.355 30.3641C162.53 28.8591 163.353 27.9316 164.621 27.9316C165.82 27.9316 166.643 28.8766 166.774 30.3641H162.355Z" fill="black"/>
<path d="M171.518 35.1679V30.3291C171.518 28.9554 172.279 28.0541 173.434 28.0541C173.836 28.0541 174.291 28.1416 174.624 28.2991L174.913 26.9166C174.563 26.7591 174.16 26.6804 173.688 26.6804C172.734 26.6804 171.973 27.0654 171.483 27.8266V26.8379H170.144V35.1679H171.518Z" fill="black"/>
<path d="M178.816 35.1679V28.0979H181.651V26.8379H178.816V25.3766C178.816 24.3266 179.236 23.7316 180.172 23.7316C180.715 23.7316 181.213 23.9066 181.598 24.1341L182.097 22.9966C181.581 22.6641 180.898 22.4191 180.015 22.4191C178.273 22.4191 177.442 23.5829 177.442 25.3679V26.8379H175.797V28.0979H177.442V35.1679H178.816Z" fill="black"/>
<path d="M186.585 35.3166C188.466 35.3166 189.989 34.2229 189.989 31.9391V26.8379H188.615V31.8341C188.615 33.3129 187.775 34.0041 186.585 34.0041C185.404 34.0041 184.564 33.3129 184.564 31.8341V26.8379H183.19V31.9391C183.19 34.2229 184.704 35.3166 186.585 35.3166Z" fill="black"/>
<path d="M193.786 35.1679V22.5679H192.412V35.1679H193.786Z" fill="black"/>
<path d="M204.406 35.3166C206.401 35.3166 207.704 34.3279 207.704 32.7704C207.704 31.5016 206.856 30.7316 205.289 30.4516L204.467 30.3029C203.452 30.1191 202.944 29.7691 202.944 29.1129C202.944 28.3691 203.609 27.9054 204.624 27.9054C205.526 27.9054 206.409 28.2466 206.917 28.6054L207.503 27.5554C206.768 27.0216 205.753 26.6891 204.581 26.6891C202.761 26.6891 201.536 27.6254 201.536 29.1479C201.536 30.3466 202.279 31.2216 203.951 31.5016L204.764 31.6416C205.832 31.8254 206.304 32.2366 206.304 32.8491C206.304 33.6541 205.543 34.1004 204.379 34.1004C203.251 34.1004 202.489 33.7416 201.929 33.2779L201.291 34.3104C202.157 35.0191 203.303 35.3166 204.406 35.3166Z" fill="black"/>
<path d="M210.276 24.8429C210.801 24.8429 211.204 24.4491 211.204 23.9241C211.204 23.4079 210.801 22.9966 210.276 22.9966C209.76 22.9966 209.358 23.3991 209.358 23.9241C209.358 24.4404 209.76 24.8429 210.276 24.8429ZM210.968 35.1679V26.8379H209.585V35.1679H210.968Z" fill="black"/>
<path d="M215.009 35.1679V22.5679H213.635V35.1679H215.009Z" fill="black"/>
<path d="M218.897 35.1679V30.1541C218.897 28.8241 219.816 27.9929 220.98 27.9929C222.231 27.9929 222.975 28.7629 222.975 30.1104V35.1679H224.349V29.7079C224.349 27.8529 223.141 26.6804 221.365 26.6804C220.42 26.6804 219.501 27.0041 218.897 27.8004V22.5679H217.515V35.1679H218.897Z" fill="black"/>
<path d="M230.138 35.3166C232.413 35.3166 234.031 33.5666 234.031 31.0029C234.031 28.4304 232.413 26.6804 230.138 26.6804C227.871 26.6804 226.253 28.4304 226.253 31.0029C226.253 33.5666 227.871 35.3166 230.138 35.3166ZM230.138 34.0041C228.694 34.0041 227.661 32.8404 227.661 31.0029C227.661 29.1654 228.694 27.9929 230.138 27.9929C231.581 27.9929 232.631 29.1654 232.631 31.0029C232.631 32.8404 231.581 34.0041 230.138 34.0041Z" fill="black"/>
<path d="M239.322 35.3166C241.204 35.3166 242.726 34.2229 242.726 31.9391V26.8379H241.352V31.8341C241.352 33.3129 240.512 34.0041 239.322 34.0041C238.141 34.0041 237.301 33.3129 237.301 31.8341V26.8379H235.927V31.9391C235.927 34.2229 237.441 35.3166 239.322 35.3166Z" fill="black"/>
<path d="M248.448 35.3166C249.577 35.3166 250.635 35.0016 251.545 34.0916L250.819 33.1379C250.215 33.7066 249.454 34.0829 248.544 34.0829C247.214 34.0829 246.208 33.2341 246.05 31.5016H251.852C251.869 31.3529 251.878 31.1691 251.878 31.0029C251.878 28.3691 250.425 26.6804 248.343 26.6804C246.155 26.6804 244.624 28.3691 244.624 31.0029C244.624 33.6541 246.164 35.3166 248.448 35.3166ZM246.059 30.3641C246.234 28.8591 247.057 27.9316 248.325 27.9316C249.524 27.9316 250.347 28.8766 250.478 30.3641H246.059Z" fill="black"/>
<path d="M257.104 35.3166C258.032 35.3166 258.758 35.0191 259.318 34.5991L258.732 33.5229C258.338 33.8029 257.831 33.9954 257.306 33.9954C256.466 33.9954 255.888 33.5141 255.888 32.4029V28.1066H258.951V26.8291H255.888V24.3529H254.497V26.8291H252.904V28.1066H254.497V32.4904C254.497 34.3979 255.477 35.3166 257.104 35.3166Z" fill="black"/>
<path d="M264.009 35.3166C264.936 35.3166 265.663 35.0191 266.223 34.5991L265.636 33.5229C265.243 33.8029 264.735 33.9954 264.21 33.9954C263.37 33.9954 262.793 33.5141 262.793 32.4029V28.1066H265.855V26.8291H262.793V24.3529H261.401V26.8291H259.809V28.1066H261.401V32.4904C261.401 34.3979 262.381 35.3166 264.009 35.3166Z" fill="black"/>
<path d="M270.989 35.3166C272.118 35.3166 273.177 35.0016 274.087 34.0916L273.361 33.1379C272.757 33.7066 271.996 34.0829 271.086 34.0829C269.756 34.0829 268.749 33.2341 268.592 31.5016H274.393C274.411 31.3529 274.419 31.1691 274.419 31.0029C274.419 28.3691 272.967 26.6804 270.884 26.6804C268.697 26.6804 267.166 28.3691 267.166 31.0029C267.166 33.6541 268.706 35.3166 270.989 35.3166ZM268.601 30.3641C268.776 28.8591 269.598 27.9316 270.867 27.9316C272.066 27.9316 272.888 28.8766 273.019 30.3641H268.601Z" fill="black"/>
<path d="M278.866 35.3166C280.861 35.3166 282.165 34.3279 282.165 32.7704C282.165 31.5016 281.316 30.7316 279.75 30.4516L278.927 30.3029C277.912 30.1191 277.405 29.7691 277.405 29.1129C277.405 28.3691 278.07 27.9054 279.085 27.9054C279.986 27.9054 280.87 28.2466 281.377 28.6054L281.964 27.5554C281.229 27.0216 280.214 26.6891 279.041 26.6891C277.221 26.6891 275.996 27.6254 275.996 29.1479C275.996 30.3466 276.74 31.2216 278.411 31.5016L279.225 31.6416C280.292 31.8254 280.765 32.2366 280.765 32.8491C280.765 33.6541 280.004 34.1004 278.84 34.1004C277.711 34.1004 276.95 33.7416 276.39 33.2779L275.751 34.3104C276.617 35.0191 277.763 35.3166 278.866 35.3166Z" fill="black"/>
<path d="M292.974 35.3166C294.111 35.3166 295.1 34.8529 295.765 34.0041L294.872 33.1204C294.382 33.6541 293.717 34.0041 292.965 34.0041C291.582 34.0041 290.55 32.8579 290.55 31.0029C290.55 29.1479 291.582 27.9929 292.965 27.9929C293.726 27.9929 294.347 28.3254 294.855 28.8766L295.765 27.9929C295.109 27.1441 294.111 26.6804 292.974 26.6804C290.681 26.6804 289.141 28.4304 289.141 31.0029C289.141 33.5666 290.681 35.3166 292.974 35.3166Z" fill="black"/>
<path d="M300.844 35.3166C302.725 35.3166 304.247 34.2229 304.247 31.9391V26.8379H302.874V31.8341C302.874 33.3129 302.034 34.0041 300.844 34.0041C299.662 34.0041 298.822 33.3129 298.822 31.8341V26.8379H297.449V31.9391C297.449 34.2229 298.962 35.3166 300.844 35.3166Z" fill="black"/>
<path d="M309.995 35.3166C310.923 35.3166 311.649 35.0191 312.209 34.5991L311.623 33.5229C311.229 33.8029 310.722 33.9954 310.197 33.9954C309.357 33.9954 308.779 33.5141 308.779 32.4029V28.1066H311.842V26.8291H308.779V24.3529H307.388V26.8291H305.795V28.1066H307.388V32.4904C307.388 34.3979 308.368 35.3166 309.995 35.3166Z" fill="black"/>
<path d="M322.554 35.3166C323.482 35.3166 324.208 35.0191 324.768 34.5991L324.182 33.5229C323.788 33.8029 323.281 33.9954 322.756 33.9954C321.916 33.9954 321.338 33.5141 321.338 32.4029V28.1066H324.401V26.8291H321.338V24.3529H319.947V26.8291H318.354V28.1066H319.947V32.4904C319.947 34.3979 320.927 35.3166 322.554 35.3166Z" fill="black"/>
<path d="M329.596 35.3166C331.871 35.3166 333.49 33.5666 333.49 31.0029C333.49 28.4304 331.871 26.6804 329.596 26.6804C327.33 26.6804 325.711 28.4304 325.711 31.0029C325.711 33.5666 327.33 35.3166 329.596 35.3166ZM329.596 34.0041C328.152 34.0041 327.12 32.8404 327.12 31.0029C327.12 29.1654 328.152 27.9929 329.596 27.9929C331.04 27.9929 332.09 29.1654 332.09 31.0029C332.09 32.8404 331.04 34.0041 329.596 34.0041Z" fill="black"/>
<path d="M342.459 38.5191V34.1266C343.054 34.8529 343.911 35.3166 345.066 35.3166C347.14 35.3166 348.663 33.5666 348.663 31.0029C348.663 28.4391 347.14 26.6804 345.066 26.6804C343.903 26.6804 343.036 27.1529 342.441 27.8966V26.8379H341.085V38.5191H342.459ZM344.821 34.0129C343.378 34.0129 342.38 32.8229 342.38 31.0029C342.38 29.1741 343.378 27.9929 344.821 27.9929C346.291 27.9929 347.254 29.2004 347.254 31.0029C347.254 32.7966 346.291 34.0129 344.821 34.0129Z" fill="black"/>
<path d="M353.937 35.3166C355.066 35.3166 356.125 35.0016 357.035 34.0916L356.308 33.1379C355.705 33.7066 354.943 34.0829 354.033 34.0829C352.703 34.0829 351.697 33.2341 351.54 31.5016H357.341C357.358 31.3529 357.367 31.1691 357.367 31.0029C357.367 28.3691 355.915 26.6804 353.832 26.6804C351.645 26.6804 350.113 28.3691 350.113 31.0029C350.113 33.6541 351.653 35.3166 353.937 35.3166ZM351.548 30.3641C351.723 28.8591 352.546 27.9316 353.815 27.9316C355.013 27.9316 355.836 28.8766 355.967 30.3641H351.548Z" fill="black"/>
<path d="M360.711 35.1679V30.3291C360.711 28.9554 361.472 28.0541 362.627 28.0541C363.03 28.0541 363.485 28.1416 363.817 28.2991L364.106 26.9166C363.756 26.7591 363.353 26.6804 362.881 26.6804C361.927 26.6804 361.166 27.0654 360.676 27.8266V26.8379H359.337V35.1679H360.711Z" fill="black"/>
<path d="M368.009 35.1679V28.0979H370.844V26.8379H368.009V25.3766C368.009 24.3266 368.429 23.7316 369.365 23.7316C369.908 23.7316 370.407 23.9066 370.792 24.1341L371.29 22.9966C370.774 22.6641 370.092 22.4191 369.208 22.4191C367.467 22.4191 366.635 23.5829 366.635 25.3679V26.8379H364.99V28.0979H366.635V35.1679H368.009Z" fill="black"/>
<path d="M375.539 35.3166C376.667 35.3166 377.726 35.0016 378.636 34.0916L377.91 33.1379C377.306 33.7066 376.545 34.0829 375.635 34.0829C374.305 34.0829 373.299 33.2341 373.141 31.5016H378.942C378.96 31.3529 378.969 31.1691 378.969 31.0029C378.969 28.3691 377.516 26.6804 375.434 26.6804C373.246 26.6804 371.715 28.3691 371.715 31.0029C371.715 33.6541 373.255 35.3166 375.539 35.3166ZM373.15 30.3641C373.325 28.8591 374.147 27.9316 375.416 27.9316C376.615 27.9316 377.437 28.8766 377.569 30.3641H373.15Z" fill="black"/>
<path d="M384.246 35.3166C385.384 35.3166 386.372 34.8529 387.037 34.0041L386.145 33.1204C385.655 33.6541 384.99 34.0041 384.237 34.0041C382.855 34.0041 381.822 32.8579 381.822 31.0029C381.822 29.1479 382.855 27.9929 384.237 27.9929C384.999 27.9929 385.62 28.3254 386.127 28.8766L387.037 27.9929C386.381 27.1441 385.384 26.6804 384.246 26.6804C381.954 26.6804 380.414 28.4304 380.414 31.0029C380.414 33.5666 381.954 35.3166 384.246 35.3166Z" fill="black"/>
<path d="M392.228 35.3166C393.155 35.3166 393.881 35.0191 394.441 34.5991L393.855 33.5229C393.461 33.8029 392.954 33.9954 392.429 33.9954C391.589 33.9954 391.011 33.5141 391.011 32.4029V28.1066H394.074V26.8291H391.011V24.3529H389.62V26.8291H388.028V28.1066H389.62V32.4904C389.62 34.3979 390.6 35.3166 392.228 35.3166Z" fill="black"/>
<path d="M396.652 24.8429C397.177 24.8429 397.579 24.4491 397.579 23.9241C397.579 23.4079 397.177 22.9966 396.652 22.9966C396.136 22.9966 395.733 23.3991 395.733 23.9241C395.733 24.4404 396.136 24.8429 396.652 24.8429ZM397.343 35.1679V26.8379H395.961V35.1679H397.343Z" fill="black"/>
<path d="M403.217 35.3166C405.492 35.3166 407.111 33.5666 407.111 31.0029C407.111 28.4304 405.492 26.6804 403.217 26.6804C400.951 26.6804 399.332 28.4304 399.332 31.0029C399.332 33.5666 400.951 35.3166 403.217 35.3166ZM403.217 34.0041C401.773 34.0041 400.741 32.8404 400.741 31.0029C400.741 29.1654 401.773 27.9929 403.217 27.9929C404.661 27.9929 405.711 29.1654 405.711 31.0029C405.711 32.8404 404.661 34.0041 403.217 34.0041Z" fill="black"/>
<path d="M410.468 35.1679V30.1541C410.468 28.8241 411.387 27.9929 412.551 27.9929C413.802 27.9929 414.537 28.7716 414.537 30.1104V35.1679H415.919V29.7079C415.919 27.8529 414.712 26.6804 412.944 26.6804C411.982 26.6804 411.028 27.0304 410.433 27.8879V26.8379H409.086V35.1679H410.468Z" fill="black"/>
<path d="M427.04 35.3166C428.221 35.3166 429.087 34.8179 429.674 34.0479V35.1679H431.03V26.8379H429.674V27.9404C429.096 27.1704 428.23 26.6804 427.058 26.6804C424.975 26.6804 423.444 28.4304 423.444 31.0029C423.444 33.5666 424.966 35.3166 427.04 35.3166ZM427.294 34.0041C425.824 34.0041 424.861 32.7966 424.861 31.0029C424.861 29.2091 425.824 27.9929 427.294 27.9929C428.738 27.9929 429.726 29.1829 429.726 31.0029C429.726 32.8229 428.738 34.0041 427.294 34.0041Z" fill="black"/>
<path d="M434.922 35.1679V30.1541C434.922 28.8241 435.84 27.9929 437.004 27.9929C438.255 27.9929 438.99 28.7716 438.99 30.1104V35.1679H440.373V29.7079C440.373 27.8529 439.165 26.6804 437.398 26.6804C436.435 26.6804 435.482 27.0304 434.887 27.8879V26.8379H433.539V35.1679H434.922Z" fill="black"/>
<path d="M445.873 35.3166C447.037 35.3166 447.903 34.8704 448.507 34.1704V35.1679H449.863V22.5679H448.489V27.8179C447.886 27.1179 447.019 26.6804 445.873 26.6804C443.808 26.6804 442.277 28.4304 442.277 31.0029C442.277 33.5666 443.808 35.3166 445.873 35.3166ZM446.127 34.0129C444.657 34.0129 443.686 32.7966 443.686 31.0029C443.686 29.2004 444.648 27.9841 446.127 27.9841C447.571 27.9841 448.559 29.1741 448.559 31.0029C448.559 32.8229 447.571 34.0129 446.127 34.0129Z" fill="black"/>
<path d="M461.291 35.3166C462.42 35.3166 463.479 35.0016 464.389 34.0916L463.663 33.1379C463.059 33.7066 462.298 34.0829 461.388 34.0829C460.058 34.0829 459.051 33.2341 458.894 31.5016H464.695C464.713 31.3529 464.721 31.1691 464.721 31.0029C464.721 28.3691 463.269 26.6804 461.186 26.6804C458.999 26.6804 457.468 28.3691 457.468 31.0029C457.468 33.6541 459.008 35.3166 461.291 35.3166ZM458.903 30.3641C459.078 28.8591 459.9 27.9316 461.169 27.9316C462.368 27.9316 463.19 28.8766 463.321 30.3641H458.903Z" fill="black"/>
<path d="M468.074 35.1679V30.1541C468.074 28.8241 468.993 27.9929 470.156 27.9929C471.408 27.9929 472.143 28.7716 472.143 30.1104V35.1679H473.525V29.7079C473.525 27.8529 472.318 26.6804 470.55 26.6804C469.588 26.6804 468.634 27.0304 468.039 27.8879V26.8379H466.691V35.1679H468.074Z" fill="black"/>
<path d="M479.025 38.6154C481.3 38.6154 482.945 37.2416 482.945 34.7041V26.8379H481.598V27.8616C480.994 27.1179 480.11 26.6804 478.999 26.6804C476.987 26.6804 475.429 28.3079 475.429 30.8891C475.429 33.4704 476.995 35.0979 478.911 35.0979C480.066 35.0979 480.968 34.6691 481.58 33.9341V34.7654C481.58 36.4891 480.469 37.3554 478.982 37.3554C477.975 37.3554 477.091 36.9879 476.453 36.4541L475.866 37.5391C476.619 38.2216 477.783 38.6154 479.025 38.6154ZM479.253 33.8029C477.792 33.8029 476.838 32.6129 476.838 30.8891C476.838 29.1741 477.792 27.9841 479.253 27.9841C480.679 27.9841 481.659 29.1479 481.659 30.8891C481.659 32.6304 480.679 33.8029 479.253 33.8029Z" fill="black"/>
<path d="M486.147 24.8429C486.672 24.8429 487.075 24.4491 487.075 23.9241C487.075 23.4079 486.672 22.9966 486.147 22.9966C485.631 22.9966 485.228 23.3991 485.228 23.9241C485.228 24.4404 485.631 24.8429 486.147 24.8429ZM486.838 35.1679V26.8379H485.456V35.1679H486.838Z" fill="black"/>
<path d="M490.735 35.1679V30.1541C490.735 28.8241 491.654 27.9929 492.817 27.9929C494.069 27.9929 494.804 28.7716 494.804 30.1104V35.1679H496.186V29.7079C496.186 27.8529 494.979 26.6804 493.211 26.6804C492.249 26.6804 491.295 27.0304 490.7 27.8879V26.8379H489.352V35.1679H490.735Z" fill="black"/>
<path d="M501.914 35.3166C503.043 35.3166 504.101 35.0016 505.011 34.0916L504.285 33.1379C503.681 33.7066 502.92 34.0829 502.01 34.0829C500.68 34.0829 499.674 33.2341 499.516 31.5016H505.318C505.335 31.3529 505.344 31.1691 505.344 31.0029C505.344 28.3691 503.891 26.6804 501.809 26.6804C499.621 26.6804 498.09 28.3691 498.09 31.0029C498.09 33.6541 499.63 35.3166 501.914 35.3166ZM499.525 30.3641C499.7 28.8591 500.523 27.9316 501.791 27.9316C502.99 27.9316 503.813 28.8766 503.944 30.3641H499.525Z" fill="black"/>
<path d="M510.613 35.3166C511.741 35.3166 512.8 35.0016 513.71 34.0916L512.984 33.1379C512.38 33.7066 511.619 34.0829 510.709 34.0829C509.379 34.0829 508.373 33.2341 508.215 31.5016H514.016C514.034 31.3529 514.043 31.1691 514.043 31.0029C514.043 28.3691 512.59 26.6804 510.508 26.6804C508.32 26.6804 506.789 28.3691 506.789 31.0029C506.789 33.6541 508.329 35.3166 510.613 35.3166ZM508.224 30.3641C508.399 28.8591 509.221 27.9316 510.49 27.9316C511.689 27.9316 512.511 28.8766 512.643 30.3641H508.224Z" fill="black"/>
<path d="M517.386 35.1679V30.3291C517.386 28.9554 518.148 28.0541 519.303 28.0541C519.705 28.0541 520.16 28.1416 520.493 28.2991L520.781 26.9166C520.431 26.7591 520.029 26.6804 519.556 26.6804C518.603 26.6804 517.841 27.0654 517.351 27.8266V26.8379H516.013V35.1679H517.386Z" fill="black"/>
<path d="M525.378 35.3166C526.507 35.3166 527.566 35.0016 528.476 34.0916L527.749 33.1379C527.146 33.7066 526.385 34.0829 525.474 34.0829C524.144 34.0829 523.138 33.2341 522.981 31.5016H528.782C528.799 31.3529 528.808 31.1691 528.808 31.0029C528.808 28.3691 527.356 26.6804 525.273 26.6804C523.086 26.6804 521.555 28.3691 521.555 31.0029C521.555 33.6541 523.094 35.3166 525.378 35.3166ZM522.99 30.3641C523.164 28.8591 523.987 27.9316 525.256 27.9316C526.454 27.9316 527.277 28.8766 527.408 30.3641H522.99Z" fill="black"/>
<path d="M533.849 35.3166C535.013 35.3166 535.879 34.8704 536.483 34.1704V35.1679H537.839V22.5679H536.466V27.8179C535.862 27.1179 534.996 26.6804 533.849 26.6804C531.784 26.6804 530.253 28.4304 530.253 31.0029C530.253 33.5666 531.784 35.3166 533.849 35.3166ZM534.103 34.0129C532.633 34.0129 531.662 32.7966 531.662 31.0029C531.662 29.2004 532.625 27.9841 534.103 27.9841C535.547 27.9841 536.536 29.1741 536.536 31.0029C536.536 32.8229 535.547 34.0129 534.103 34.0129Z" fill="black"/>
<path d="M549.174 35.3166C550.102 35.3166 550.828 35.0191 551.388 34.5991L550.802 33.5229C550.408 33.8029 549.901 33.9954 549.376 33.9954C548.536 33.9954 547.958 33.5141 547.958 32.4029V28.1066H551.021V26.8291H547.958V24.3529H546.567V26.8291H544.974V28.1066H546.567V32.4904C546.567 34.3979 547.547 35.3166 549.174 35.3166Z" fill="black"/>
<path d="M556.216 35.3166C558.491 35.3166 560.11 33.5666 560.11 31.0029C560.11 28.4304 558.491 26.6804 556.216 26.6804C553.95 26.6804 552.331 28.4304 552.331 31.0029C552.331 33.5666 553.95 35.3166 556.216 35.3166ZM556.216 34.0041C554.772 34.0041 553.74 32.8404 553.74 31.0029C553.74 29.1654 554.772 27.9929 556.216 27.9929C557.66 27.9929 558.71 29.1654 558.71 31.0029C558.71 32.8404 557.66 34.0041 556.216 34.0041Z" fill="black"/>
<path d="M4.32257 56.9833C5.50382 56.9833 6.37007 56.4845 6.95632 55.7145V56.8345H8.31257V48.5045H6.95632V49.607C6.37882 48.837 5.51257 48.347 4.34007 48.347C2.25757 48.347 0.726318 50.097 0.726318 52.6695C0.726318 55.2333 2.24882 56.9833 4.32257 56.9833ZM4.57632 55.6708C3.10632 55.6708 2.14382 54.4633 2.14382 52.6695C2.14382 50.8758 3.10632 49.6595 4.57632 49.6595C6.02007 49.6595 7.00882 50.8495 7.00882 52.6695C7.00882 54.4895 6.02007 55.6708 4.57632 55.6708Z" fill="black"/>
<path d="M12.1954 56.8345V44.2345H10.8216V56.8345H12.1954Z" fill="black"/>
<path d="M16.0748 56.8345V44.2345H14.701V56.8345H16.0748Z" fill="black"/>
<path d="M21.9404 56.9833C24.2154 56.9833 25.8342 55.2333 25.8342 52.6695C25.8342 50.097 24.2154 48.347 21.9404 48.347C19.6742 48.347 18.0554 50.097 18.0554 52.6695C18.0554 55.2333 19.6742 56.9833 21.9404 56.9833ZM21.9404 55.6708C20.4967 55.6708 19.4642 54.507 19.4642 52.6695C19.4642 50.832 20.4967 49.6595 21.9404 49.6595C23.3842 49.6595 24.4342 50.832 24.4342 52.6695C24.4342 54.507 23.3842 55.6708 21.9404 55.6708Z" fill="black"/>
<path d="M31.0231 56.8345L33.1231 50.1758L35.2406 56.8345H36.8068L39.5368 48.5045H38.1106L36.0018 55.2595L33.8493 48.5045H32.4318L30.2968 55.2595L28.1881 48.5045H26.7356L29.4656 56.8345H31.0231Z" fill="black"/>
<path d="M46.9866 56.8345V49.7645H49.8217V48.5045H46.9866V47.0433C46.9866 45.9933 47.4067 45.3983 48.3429 45.3983C48.8854 45.3983 49.3842 45.5733 49.7691 45.8008L50.2679 44.6633C49.7517 44.3308 49.0691 44.0858 48.1854 44.0858C46.4441 44.0858 45.6129 45.2495 45.6129 47.0345V48.5045H43.9679V49.7645H45.6129V56.8345H46.9866Z" fill="black"/>
<path d="M54.5774 56.9833C56.8524 56.9833 58.4712 55.2333 58.4712 52.6695C58.4712 50.097 56.8524 48.347 54.5774 48.347C52.3112 48.347 50.6924 50.097 50.6924 52.6695C50.6924 55.2333 52.3112 56.9833 54.5774 56.9833ZM54.5774 55.6708C53.1337 55.6708 52.1012 54.507 52.1012 52.6695C52.1012 50.832 53.1337 49.6595 54.5774 49.6595C56.0212 49.6595 57.0712 50.832 57.0712 52.6695C57.0712 54.507 56.0212 55.6708 54.5774 55.6708Z" fill="black"/>
<path d="M61.8197 56.8345V51.9958C61.8197 50.622 62.5809 49.7208 63.7359 49.7208C64.1384 49.7208 64.5934 49.8083 64.9259 49.9658L65.2147 48.5833C64.8647 48.4258 64.4622 48.347 63.9897 48.347C63.0359 48.347 62.2747 48.732 61.7847 49.4933V48.5045H60.4459V56.8345H61.8197Z" fill="black"/>
<path d="M72.7364 56.8345V49.7645H75.5714V48.5045H72.7364V47.0433C72.7364 45.9933 73.1564 45.3983 74.0927 45.3983C74.6352 45.3983 75.1339 45.5733 75.5189 45.8008L76.0177 44.6633C75.5014 44.3308 74.8189 44.0858 73.9352 44.0858C72.1939 44.0858 71.3627 45.2495 71.3627 47.0345V48.5045H69.7177V49.7645H71.3627V56.8345H72.7364Z" fill="black"/>
<path d="M78.5118 56.8345V51.9958C78.5118 50.622 79.2731 49.7208 80.4281 49.7208C80.8306 49.7208 81.2856 49.8083 81.6181 49.9658L81.9068 48.5833C81.5568 48.4258 81.1543 48.347 80.6818 48.347C79.7281 48.347 78.9668 48.732 78.4768 49.4933V48.5045H77.1381V56.8345H78.5118Z" fill="black"/>
<path d="M86.5037 56.9833C87.6325 56.9833 88.6912 56.6683 89.6012 55.7583L88.875 54.8045C88.2712 55.3733 87.51 55.7495 86.6 55.7495C85.27 55.7495 84.2637 54.9008 84.1062 53.1683H89.9075C89.925 53.0195 89.9337 52.8358 89.9337 52.6695C89.9337 50.0358 88.4812 48.347 86.3987 48.347C84.2112 48.347 82.68 50.0358 82.68 52.6695C82.68 55.3208 84.22 56.9833 86.5037 56.9833ZM84.115 52.0308C84.29 50.5258 85.1125 49.5983 86.3812 49.5983C87.58 49.5983 88.4025 50.5433 88.5337 52.0308H84.115Z" fill="black"/>
<path d="M95.2025 56.9833C96.3312 56.9833 97.39 56.6683 98.3 55.7583L97.5737 54.8045C96.97 55.3733 96.2087 55.7495 95.2987 55.7495C93.9687 55.7495 92.9625 54.9008 92.805 53.1683H98.6062C98.6237 53.0195 98.6325 52.8358 98.6325 52.6695C98.6325 50.0358 97.18 48.347 95.0975 48.347C92.91 48.347 91.3787 50.0358 91.3787 52.6695C91.3787 55.3208 92.9187 56.9833 95.2025 56.9833ZM92.8137 52.0308C92.9887 50.5258 93.8112 49.5983 95.08 49.5983C96.2787 49.5983 97.1012 50.5433 97.2325 52.0308H92.8137Z" fill="black"/>
<path d="M103.674 56.9833C104.837 56.9833 105.704 56.537 106.307 55.837V56.8345H107.664V44.2345H106.29V49.4845C105.686 48.7845 104.82 48.347 103.674 48.347C101.609 48.347 100.077 50.097 100.077 52.6695C100.077 55.2333 101.609 56.9833 103.674 56.9833ZM103.927 55.6795C102.457 55.6795 101.486 54.4633 101.486 52.6695C101.486 50.867 102.449 49.6508 103.927 49.6508C105.371 49.6508 106.36 50.8408 106.36 52.6695C106.36 54.4895 105.371 55.6795 103.927 55.6795Z" fill="black"/>
<path d="M113.533 56.9833C115.808 56.9833 117.427 55.2333 117.427 52.6695C117.427 50.097 115.808 48.347 113.533 48.347C111.267 48.347 109.648 50.097 109.648 52.6695C109.648 55.2333 111.267 56.9833 113.533 56.9833ZM113.533 55.6708C112.089 55.6708 111.057 54.507 111.057 52.6695C111.057 50.832 112.089 49.6595 113.533 49.6595C114.977 49.6595 116.027 50.832 116.027 52.6695C116.027 54.507 114.977 55.6708 113.533 55.6708Z" fill="black"/>
<path d="M120.784 56.8345V51.8208C120.784 50.4908 121.703 49.6595 122.866 49.6595C124.118 49.6595 124.853 50.4295 124.853 51.777V56.8345H126.235V51.812C126.235 50.4908 127.154 49.6595 128.318 49.6595C129.569 49.6595 130.304 50.4295 130.304 51.777V56.8345H131.686V51.3745C131.686 49.5195 130.479 48.347 128.685 48.347C127.574 48.347 126.471 48.7495 125.841 49.7295C125.343 48.8545 124.424 48.347 123.251 48.347C122.298 48.347 121.361 48.6795 120.749 49.4758V48.5045H119.401V56.8345H120.784Z" fill="black"/>
<path d="M141.521 56.9833C143.796 56.9833 145.415 55.2333 145.415 52.6695C145.415 50.097 143.796 48.347 141.521 48.347C139.255 48.347 137.636 50.097 137.636 52.6695C137.636 55.2333 139.255 56.9833 141.521 56.9833ZM141.521 55.6708C140.078 55.6708 139.045 54.507 139.045 52.6695C139.045 50.832 140.078 49.6595 141.521 49.6595C142.965 49.6595 144.015 50.832 144.015 52.6695C144.015 54.507 142.965 55.6708 141.521 55.6708Z" fill="black"/>
<path d="M149.465 56.8345V49.7645H152.3V48.5045H149.465V47.0433C149.465 45.9933 149.885 45.3983 150.821 45.3983C151.364 45.3983 151.863 45.5733 152.248 45.8008L152.746 44.6633C152.23 44.3308 151.548 44.0858 150.664 44.0858C148.923 44.0858 148.091 45.2495 148.091 47.0345V48.5045H146.446V49.7645H148.091V56.8345H149.465Z" fill="black"/>
<path d="M159.398 56.8345V51.8208C159.398 50.4908 160.316 49.6595 161.48 49.6595C162.731 49.6595 163.466 50.4295 163.466 51.777V56.8345H164.849V51.812C164.849 50.4908 165.768 49.6595 166.931 49.6595C168.183 49.6595 168.918 50.4295 168.918 51.777V56.8345H170.3V51.3745C170.3 49.5195 169.093 48.347 167.299 48.347C166.188 48.347 165.085 48.7495 164.455 49.7295C163.956 48.8545 163.038 48.347 161.865 48.347C160.911 48.347 159.975 48.6795 159.363 49.4758V48.5045H158.015V56.8345H159.398Z" fill="black"/>
<path d="M176.089 56.9833C178.364 56.9833 179.983 55.2333 179.983 52.6695C179.983 50.097 178.364 48.347 176.089 48.347C173.823 48.347 172.204 50.097 172.204 52.6695C172.204 55.2333 173.823 56.9833 176.089 56.9833ZM176.089 55.6708C174.646 55.6708 173.613 54.507 173.613 52.6695C173.613 50.832 174.646 49.6595 176.089 49.6595C177.533 49.6595 178.583 50.832 178.583 52.6695C178.583 54.507 177.533 55.6708 176.089 55.6708Z" fill="black"/>
<path d="M185.444 56.8433L188.533 48.5045H187.107L184.665 55.3645L182.224 48.5045H180.754L183.86 56.8433H185.444Z" fill="black"/>
<path d="M193.135 56.9833C194.264 56.9833 195.323 56.6683 196.233 55.7583L195.506 54.8045C194.903 55.3733 194.141 55.7495 193.231 55.7495C191.901 55.7495 190.895 54.9008 190.738 53.1683H196.539C196.556 53.0195 196.565 52.8358 196.565 52.6695C196.565 50.0358 195.113 48.347 193.03 48.347C190.843 48.347 189.311 50.0358 189.311 52.6695C189.311 55.3208 190.851 56.9833 193.135 56.9833ZM190.746 52.0308C190.921 50.5258 191.744 49.5983 193.013 49.5983C194.211 49.5983 195.034 50.5433 195.165 52.0308H190.746Z" fill="black"/>
<path d="M199.918 56.8345V51.8208C199.918 50.4908 200.836 49.6595 202 49.6595C203.251 49.6595 203.986 50.4295 203.986 51.777V56.8345H205.369V51.812C205.369 50.4908 206.288 49.6595 207.451 49.6595C208.703 49.6595 209.438 50.4295 209.438 51.777V56.8345H210.82V51.3745C210.82 49.5195 209.613 48.347 207.819 48.347C206.708 48.347 205.605 48.7495 204.975 49.7295C204.476 48.8545 203.558 48.347 202.385 48.347C201.431 48.347 200.495 48.6795 199.883 49.4758V48.5045H198.535V56.8345H199.918Z" fill="black"/>
<path d="M216.548 56.9833C217.677 56.9833 218.736 56.6683 219.646 55.7583L218.919 54.8045C218.316 55.3733 217.554 55.7495 216.644 55.7495C215.314 55.7495 214.308 54.9008 214.151 53.1683H219.952C219.969 53.0195 219.978 52.8358 219.978 52.6695C219.978 50.0358 218.526 48.347 216.443 48.347C214.256 48.347 212.724 50.0358 212.724 52.6695C212.724 55.3208 214.264 56.9833 216.548 56.9833ZM214.159 52.0308C214.334 50.5258 215.157 49.5983 216.426 49.5983C217.624 49.5983 218.447 50.5433 218.578 52.0308H214.159Z" fill="black"/>
<path d="M223.331 56.8345V51.8208C223.331 50.4908 224.249 49.6595 225.413 49.6595C226.664 49.6595 227.399 50.4383 227.399 51.777V56.8345H228.782V51.3745C228.782 49.5195 227.574 48.347 225.807 48.347C224.844 48.347 223.891 48.697 223.296 49.5545V48.5045H221.948V56.8345H223.331Z" fill="black"/>
<path d="M234.433 56.9833C235.361 56.9833 236.087 56.6858 236.647 56.2658L236.061 55.1895C235.667 55.4695 235.16 55.662 234.635 55.662C233.795 55.662 233.217 55.1808 233.217 54.0695V49.7733H236.28V48.4958H233.217V46.0195H231.826V48.4958H230.233V49.7733H231.826V54.157C231.826 56.0645 232.806 56.9833 234.433 56.9833Z" fill="black"/>
<path d="M245.283 56.9833C246.465 56.9833 247.331 56.4845 247.917 55.7145V56.8345H249.273V48.5045H247.917V49.607C247.34 48.837 246.473 48.347 245.301 48.347C243.218 48.347 241.687 50.097 241.687 52.6695C241.687 55.2333 243.21 56.9833 245.283 56.9833ZM245.537 55.6708C244.067 55.6708 243.105 54.4633 243.105 52.6695C243.105 50.8758 244.067 49.6595 245.537 49.6595C246.981 49.6595 247.97 50.8495 247.97 52.6695C247.97 54.4895 246.981 55.6708 245.537 55.6708Z" fill="black"/>
<path d="M253.165 56.8345V51.8208C253.165 50.4908 254.084 49.6595 255.247 49.6595C256.499 49.6595 257.234 50.4383 257.234 51.777V56.8345H258.616V51.3745C258.616 49.5195 257.409 48.347 255.641 48.347C254.679 48.347 253.725 48.697 253.13 49.5545V48.5045H251.782V56.8345H253.165Z" fill="black"/>
<path d="M264.116 56.9833C265.28 56.9833 266.146 56.537 266.75 55.837V56.8345H268.106V44.2345H266.733V49.4845C266.129 48.7845 265.263 48.347 264.116 48.347C262.051 48.347 260.52 50.097 260.52 52.6695C260.52 55.2333 262.051 56.9833 264.116 56.9833ZM264.37 55.6795C262.9 55.6795 261.929 54.4633 261.929 52.6695C261.929 50.867 262.891 49.6508 264.37 49.6508C265.814 49.6508 266.803 50.8408 266.803 52.6695C266.803 54.4895 265.814 55.6795 264.37 55.6795Z" fill="black"/>
<path d="M277.96 56.9833C279.089 56.9833 280.147 56.6683 281.057 55.7583L280.331 54.8045C279.727 55.3733 278.966 55.7495 278.056 55.7495C276.726 55.7495 275.72 54.9008 275.562 53.1683H281.364C281.381 53.0195 281.39 52.8358 281.39 52.6695C281.39 50.0358 279.937 48.347 277.855 48.347C275.667 48.347 274.136 50.0358 274.136 52.6695C274.136 55.3208 275.676 56.9833 277.96 56.9833ZM275.571 52.0308C275.746 50.5258 276.569 49.5983 277.837 49.5983C279.036 49.5983 279.859 50.5433 279.99 52.0308H275.571Z" fill="black"/>
<path d="M286.431 56.9833C287.612 56.9833 288.479 56.4845 289.065 55.7145V56.8345H290.421V48.5045H289.065V49.607C288.487 48.837 287.621 48.347 286.449 48.347C284.366 48.347 282.835 50.097 282.835 52.6695C282.835 55.2333 284.357 56.9833 286.431 56.9833ZM286.685 55.6708C285.215 55.6708 284.252 54.4633 284.252 52.6695C284.252 50.8758 285.215 49.6595 286.685 49.6595C288.129 49.6595 289.117 50.8495 289.117 52.6695C289.117 54.4895 288.129 55.6708 286.685 55.6708Z" fill="black"/>
<path d="M295.424 56.9833C297.419 56.9833 298.723 55.9945 298.723 54.437C298.723 53.1683 297.874 52.3983 296.308 52.1183L295.485 51.9695C294.47 51.7858 293.963 51.4358 293.963 50.7795C293.963 50.0358 294.628 49.572 295.643 49.572C296.544 49.572 297.428 49.9133 297.935 50.272L298.521 49.222C297.786 48.6883 296.771 48.3558 295.599 48.3558C293.779 48.3558 292.554 49.292 292.554 50.8145C292.554 52.0133 293.298 52.8883 294.969 53.1683L295.783 53.3083C296.85 53.492 297.323 53.9033 297.323 54.5158C297.323 55.3208 296.561 55.767 295.398 55.767C294.269 55.767 293.508 55.4083 292.948 54.9445L292.309 55.977C293.175 56.6858 294.321 56.9833 295.424 56.9833Z" fill="black"/>
<path d="M301.724 60.1858L307.516 48.5045H306.029L303.553 53.702L300.989 48.5045H299.475L302.818 55.137L300.236 60.1858H301.724Z" fill="black"/>
<path d="M313.953 56.8345V44.2345H312.579V56.8345H313.953Z" fill="black"/>
<path d="M319.53 56.9833C320.711 56.9833 321.577 56.4845 322.163 55.7145V56.8345H323.52V48.5045H322.163V49.607C321.586 48.837 320.72 48.347 319.547 48.347C317.465 48.347 315.933 50.097 315.933 52.6695C315.933 55.2333 317.456 56.9833 319.53 56.9833ZM319.783 55.6708C318.313 55.6708 317.351 54.4633 317.351 52.6695C317.351 50.8758 318.313 49.6595 319.783 49.6595C321.227 49.6595 322.216 50.8495 322.216 52.6695C322.216 54.4895 321.227 55.6708 319.783 55.6708Z" fill="black"/>
<path d="M327.166 60.1858L332.959 48.5045H331.471L328.995 53.702L326.431 48.5045H324.917L328.26 55.137L325.679 60.1858H327.166Z" fill="black"/>
<path d="M337.462 56.9833C338.591 56.9833 339.65 56.6683 340.56 55.7583L339.833 54.8045C339.23 55.3733 338.468 55.7495 337.558 55.7495C336.228 55.7495 335.222 54.9008 335.065 53.1683H340.866C340.883 53.0195 340.892 52.8358 340.892 52.6695C340.892 50.0358 339.44 48.347 337.357 48.347C335.17 48.347 333.638 50.0358 333.638 52.6695C333.638 55.3208 335.178 56.9833 337.462 56.9833ZM335.073 52.0308C335.248 50.5258 336.071 49.5983 337.34 49.5983C338.538 49.5983 339.361 50.5433 339.492 52.0308H335.073Z" fill="black"/>
<path d="M344.236 56.8345V51.9958C344.236 50.622 344.997 49.7208 346.152 49.7208C346.555 49.7208 347.01 49.8083 347.342 49.9658L347.631 48.5833C347.281 48.4258 346.878 48.347 346.406 48.347C345.452 48.347 344.691 48.732 344.201 49.4933V48.5045H342.862V56.8345H344.236Z" fill="black"/>
<path d="M349.945 46.5095C350.47 46.5095 350.872 46.1158 350.872 45.5908C350.872 45.0745 350.47 44.6633 349.945 44.6633C349.429 44.6633 349.026 45.0658 349.026 45.5908C349.026 46.107 349.429 46.5095 349.945 46.5095ZM350.636 56.8345V48.5045H349.254V56.8345H350.636Z" fill="black"/>
<path d="M354.533 56.8345V51.8208C354.533 50.4908 355.451 49.6595 356.615 49.6595C357.866 49.6595 358.601 50.4383 358.601 51.777V56.8345H359.984V51.3745C359.984 49.5195 358.776 48.347 357.009 48.347C356.046 48.347 355.093 48.697 354.498 49.5545V48.5045H353.15V56.8345H354.533Z" fill="black"/>
<path d="M365.484 60.282C367.759 60.282 369.404 58.9083 369.404 56.3708V48.5045H368.057V49.5283C367.453 48.7845 366.569 48.347 365.458 48.347C363.445 48.347 361.888 49.9745 361.888 52.5558C361.888 55.137 363.454 56.7645 365.37 56.7645C366.525 56.7645 367.427 56.3358 368.039 55.6008V56.432C368.039 58.1558 366.928 59.022 365.44 59.022C364.434 59.022 363.55 58.6545 362.912 58.1208L362.325 59.2058C363.078 59.8883 364.242 60.282 365.484 60.282ZM365.712 55.4695C364.25 55.4695 363.297 54.2795 363.297 52.5558C363.297 50.8408 364.25 49.6508 365.712 49.6508C367.138 49.6508 368.118 50.8145 368.118 52.5558C368.118 54.297 367.138 55.4695 365.712 55.4695Z" fill="black"/>
<path d="M376.652 46.5095C377.177 46.5095 377.579 46.1158 377.579 45.5908C377.579 45.0745 377.177 44.6633 376.652 44.6633C376.136 44.6633 375.733 45.0658 375.733 45.5908C375.733 46.107 376.136 46.5095 376.652 46.5095ZM377.343 56.8345V48.5045H375.961V56.8345H377.343Z" fill="black"/>
<path d="M381.24 56.8345V51.8208C381.24 50.4908 382.158 49.6595 383.322 49.6595C384.573 49.6595 385.308 50.4383 385.308 51.777V56.8345H386.691V51.3745C386.691 49.5195 385.483 48.347 383.716 48.347C382.753 48.347 381.8 48.697 381.205 49.5545V48.5045H379.857V56.8345H381.24Z" fill="black"/>
<path d="M394.548 56.8345V51.8208C394.548 50.4908 395.467 49.6595 396.63 49.6595C397.882 49.6595 398.625 50.4295 398.625 51.777V56.8345H399.999V51.3745C399.999 49.5195 398.792 48.347 397.015 48.347C396.07 48.347 395.152 48.6708 394.548 49.467V44.2345H393.165V56.8345H394.548Z" fill="black"/>
<path d="M405.788 56.9833C408.063 56.9833 409.682 55.2333 409.682 52.6695C409.682 50.097 408.063 48.347 405.788 48.347C403.522 48.347 401.903 50.097 401.903 52.6695C401.903 55.2333 403.522 56.9833 405.788 56.9833ZM405.788 55.6708C404.344 55.6708 403.312 54.507 403.312 52.6695C403.312 50.832 404.344 49.6595 405.788 49.6595C407.232 49.6595 408.282 50.832 408.282 52.6695C408.282 54.507 407.232 55.6708 405.788 55.6708Z" fill="black"/>
<path d="M413.039 56.8345V51.8208C413.039 50.4908 413.958 49.6595 415.122 49.6595C416.373 49.6595 417.108 50.4295 417.108 51.777V56.8345H418.49V51.812C418.49 50.4908 419.409 49.6595 420.573 49.6595C421.824 49.6595 422.559 50.4295 422.559 51.777V56.8345H423.942V51.3745C423.942 49.5195 422.734 48.347 420.94 48.347C419.829 48.347 418.727 48.7495 418.097 49.7295C417.598 48.8545 416.679 48.347 415.507 48.347C414.553 48.347 413.617 48.6795 413.004 49.4758V48.5045H411.657V56.8345H413.039Z" fill="black"/>
<path d="M429.442 56.9833C430.623 56.9833 431.49 56.4845 432.076 55.7145V56.8345H433.432V48.5045H432.076V49.607C431.498 48.837 430.632 48.347 429.46 48.347C427.377 48.347 425.846 50.097 425.846 52.6695C425.846 55.2333 427.368 56.9833 429.442 56.9833ZM429.696 55.6708C428.226 55.6708 427.263 54.4633 427.263 52.6695C427.263 50.8758 428.226 49.6595 429.696 49.6595C431.14 49.6595 432.128 50.8495 432.128 52.6695C432.128 54.4895 431.14 55.6708 429.696 55.6708Z" fill="black"/>
<path d="M439.013 60.282C441.288 60.282 442.933 58.9083 442.933 56.3708V48.5045H441.585V49.5283C440.981 48.7845 440.098 48.347 438.986 48.347C436.974 48.347 435.416 49.9745 435.416 52.5558C435.416 55.137 436.983 56.7645 438.899 56.7645C440.054 56.7645 440.955 56.3358 441.568 55.6008V56.432C441.568 58.1558 440.456 59.022 438.969 59.022C437.963 59.022 437.079 58.6545 436.44 58.1208L435.854 59.2058C436.606 59.8883 437.77 60.282 439.013 60.282ZM439.24 55.4695C437.779 55.4695 436.825 54.2795 436.825 52.5558C436.825 50.8408 437.779 49.6508 439.24 49.6508C440.666 49.6508 441.646 50.8145 441.646 52.5558C441.646 54.297 440.666 55.4695 439.24 55.4695Z" fill="black"/>
<path d="M448.742 56.9833C449.871 56.9833 450.929 56.6683 451.839 55.7583L451.113 54.8045C450.509 55.3733 449.748 55.7495 448.838 55.7495C447.508 55.7495 446.502 54.9008 446.344 53.1683H452.146C452.163 53.0195 452.172 52.8358 452.172 52.6695C452.172 50.0358 450.719 48.347 448.637 48.347C446.449 48.347 444.918 50.0358 444.918 52.6695C444.918 55.3208 446.458 56.9833 448.742 56.9833ZM446.353 52.0308C446.528 50.5258 447.351 49.5983 448.619 49.5983C449.818 49.5983 450.641 50.5433 450.772 52.0308H446.353Z" fill="black"/>
<path d="M461.393 56.9833C462.321 56.9833 463.047 56.6858 463.607 56.2658L463.021 55.1895C462.627 55.4695 462.119 55.662 461.594 55.662C460.754 55.662 460.177 55.1808 460.177 54.0695V49.7733H463.239V48.4958H460.177V46.0195H458.785V48.4958H457.193V49.7733H458.785V54.157C458.785 56.0645 459.766 56.9833 461.393 56.9833Z" fill="black"/>
<path d="M468.435 56.9833C470.71 56.9833 472.329 55.2333 472.329 52.6695C472.329 50.097 470.71 48.347 468.435 48.347C466.169 48.347 464.55 50.097 464.55 52.6695C464.55 55.2333 466.169 56.9833 468.435 56.9833ZM468.435 55.6708C466.991 55.6708 465.959 54.507 465.959 52.6695C465.959 50.832 466.991 49.6595 468.435 49.6595C469.879 49.6595 470.929 50.832 470.929 52.6695C470.929 54.507 469.879 55.6708 468.435 55.6708Z" fill="black"/>
<path d="M481.554 56.9833C482.482 56.9833 483.208 56.6858 483.768 56.2658L483.182 55.1895C482.788 55.4695 482.281 55.662 481.756 55.662C480.916 55.662 480.338 55.1808 480.338 54.0695V49.7733H483.401V48.4958H480.338V46.0195H478.947V48.4958H477.354V49.7733H478.947V54.157C478.947 56.0645 479.927 56.9833 481.554 56.9833Z" fill="black"/>
<path d="M486.67 56.8345V51.8208C486.67 50.4908 487.589 49.6595 488.753 49.6595C490.004 49.6595 490.748 50.4295 490.748 51.777V56.8345H492.121V51.3745C492.121 49.5195 490.914 48.347 489.138 48.347C488.193 48.347 487.274 48.6708 486.67 49.467V44.2345H485.288V56.8345H486.67Z" fill="black"/>
<path d="M497.849 56.9833C498.978 56.9833 500.036 56.6683 500.947 55.7583L500.22 54.8045C499.616 55.3733 498.855 55.7495 497.945 55.7495C496.615 55.7495 495.609 54.9008 495.452 53.1683H501.253C501.27 53.0195 501.279 52.8358 501.279 52.6695C501.279 50.0358 499.826 48.347 497.744 48.347C495.556 48.347 494.025 50.0358 494.025 52.6695C494.025 55.3208 495.565 56.9833 497.849 56.9833ZM495.46 52.0308C495.635 50.5258 496.458 49.5983 497.726 49.5983C498.925 49.5983 499.748 50.5433 499.879 52.0308H495.46Z" fill="black"/>
<path d="M511.276 56.9833C513.35 56.9833 514.872 55.2333 514.872 52.6695C514.872 50.097 513.35 48.347 511.276 48.347C510.121 48.347 509.263 48.8108 508.668 49.537V44.2345H507.295V56.8345H508.651V55.7758C509.246 56.5108 510.112 56.9833 511.276 56.9833ZM511.031 55.6795C509.587 55.6795 508.59 54.4895 508.59 52.6695C508.59 50.8408 509.587 49.6508 511.031 49.6508C512.501 49.6508 513.463 50.867 513.463 52.6695C513.463 54.4633 512.501 55.6795 511.031 55.6795Z" fill="black"/>
<path d="M518.222 56.8345V51.9958C518.222 50.622 518.983 49.7208 520.138 49.7208C520.54 49.7208 520.995 49.8083 521.328 49.9658L521.617 48.5833C521.267 48.4258 520.864 48.347 520.392 48.347C519.438 48.347 518.677 48.732 518.187 49.4933V48.5045H516.848V56.8345H518.222Z" fill="black"/>
<path d="M525.986 56.9833C527.167 56.9833 528.034 56.4845 528.62 55.7145V56.8345H529.976V48.5045H528.62V49.607C528.042 48.837 527.176 48.347 526.004 48.347C523.921 48.347 522.39 50.097 522.39 52.6695C522.39 55.2333 523.912 56.9833 525.986 56.9833ZM526.24 55.6708C524.77 55.6708 523.807 54.4633 523.807 52.6695C523.807 50.8758 524.77 49.6595 526.24 49.6595C527.684 49.6595 528.672 50.8495 528.672 52.6695C528.672 54.4895 527.684 55.6708 526.24 55.6708Z" fill="black"/>
<path d="M533.868 56.8345V51.8208C533.868 50.4908 534.786 49.6595 535.95 49.6595C537.201 49.6595 537.936 50.4383 537.936 51.777V56.8345H539.319V51.3745C539.319 49.5195 538.111 48.347 536.344 48.347C535.381 48.347 534.428 48.697 533.833 49.5545V48.5045H532.485V56.8345H533.868Z" fill="black"/>
<path d="M544.819 56.9833C545.983 56.9833 546.849 56.537 547.453 55.837V56.8345H548.809V44.2345H547.435V49.4845C546.831 48.7845 545.965 48.347 544.819 48.347C542.754 48.347 541.223 50.097 541.223 52.6695C541.223 55.2333 542.754 56.9833 544.819 56.9833ZM545.073 55.6795C543.603 55.6795 542.632 54.4633 542.632 52.6695C542.632 50.867 543.594 49.6508 545.073 49.6508C546.517 49.6508 547.505 50.8408 547.505 52.6695C547.505 54.4895 546.517 55.6795 545.073 55.6795Z" fill="black"/>
<path d="M552.176 48.662L553.068 44.252H551.528L551.012 48.662H552.176Z" fill="black"/>
<path d="M556.905 56.9833C558.9 56.9833 560.204 55.9945 560.204 54.437C560.204 53.1683 559.355 52.3983 557.789 52.1183L556.966 51.9695C555.951 51.7858 555.444 51.4358 555.444 50.7795C555.444 50.0358 556.109 49.572 557.124 49.572C558.025 49.572 558.909 49.9133 559.416 50.272L560.003 49.222C559.268 48.6883 558.253 48.3558 557.08 48.3558C555.26 48.3558 554.035 49.292 554.035 50.8145C554.035 52.0133 554.779 52.8883 556.45 53.1683L557.264 53.3083C558.331 53.492 558.804 53.9033 558.804 54.5158C558.804 55.3208 558.043 55.767 556.879 55.767C555.75 55.767 554.989 55.4083 554.429 54.9445L553.79 55.977C554.656 56.6858 555.803 56.9833 556.905 56.9833Z" fill="black"/>
<path d="M1.94257 68.1762C2.46757 68.1762 2.87007 67.7824 2.87007 67.2574C2.87007 66.7412 2.46757 66.3299 1.94257 66.3299C1.42632 66.3299 1.02382 66.7324 1.02382 67.2574C1.02382 67.7737 1.42632 68.1762 1.94257 68.1762ZM2.63382 78.5012V70.1712H1.25132V78.5012H2.63382Z" fill="black"/>
<path d="M8.4553 78.6499C9.5928 78.6499 10.5816 78.1862 11.2466 77.3374L10.3541 76.4537C9.86405 76.9874 9.19905 77.3374 8.44655 77.3374C7.06405 77.3374 6.03155 76.1912 6.03155 74.3362C6.03155 72.4812 7.06405 71.3262 8.44655 71.3262C9.2078 71.3262 9.82905 71.6587 10.3366 72.2099L11.2466 71.3262C10.5903 70.4774 9.5928 70.0137 8.4553 70.0137C6.1628 70.0137 4.6228 71.7637 4.6228 74.3362C4.6228 76.8999 6.1628 78.6499 8.4553 78.6499Z" fill="black"/>
<path d="M16.2153 78.6499C18.4903 78.6499 20.1091 76.8999 20.1091 74.3362C20.1091 71.7637 18.4903 70.0137 16.2153 70.0137C13.9491 70.0137 12.3303 71.7637 12.3303 74.3362C12.3303 76.8999 13.9491 78.6499 16.2153 78.6499ZM16.2153 77.3374C14.7716 77.3374 13.7391 76.1737 13.7391 74.3362C13.7391 72.4987 14.7716 71.3262 16.2153 71.3262C17.6591 71.3262 18.7091 72.4987 18.7091 74.3362C18.7091 76.1737 17.6591 77.3374 16.2153 77.3374Z" fill="black"/>
<path d="M23.4663 78.5012V73.4874C23.4663 72.1574 24.3851 71.3262 25.5488 71.3262C26.8001 71.3262 27.5351 72.1049 27.5351 73.4437V78.5012H28.9176V73.0412C28.9176 71.1862 27.7101 70.0137 25.9426 70.0137C24.9801 70.0137 24.0263 70.3637 23.4313 71.2212V70.1712H22.0838V78.5012H23.4663Z" fill="black"/>
<path d="M32.0378 68.1762C32.5628 68.1762 32.9653 67.7824 32.9653 67.2574C32.9653 66.7412 32.5628 66.3299 32.0378 66.3299C31.5215 66.3299 31.119 66.7324 31.119 67.2574C31.119 67.7737 31.5215 68.1762 32.0378 68.1762ZM32.729 78.5012V70.1712H31.3465V78.5012H32.729Z" fill="black"/>
<path d="M38.5505 78.6499C39.688 78.6499 40.6768 78.1862 41.3418 77.3374L40.4493 76.4537C39.9593 76.9874 39.2943 77.3374 38.5418 77.3374C37.1593 77.3374 36.1268 76.1912 36.1268 74.3362C36.1268 72.4812 37.1593 71.3262 38.5418 71.3262C39.303 71.3262 39.9243 71.6587 40.4318 72.2099L41.3418 71.3262C40.6855 70.4774 39.688 70.0137 38.5505 70.0137C36.258 70.0137 34.718 71.7637 34.718 74.3362C34.718 76.8999 36.258 78.6499 38.5505 78.6499Z" fill="black"/>
<path d="M49.5459 78.6499C51.5409 78.6499 52.8446 77.6612 52.8446 76.1037C52.8446 74.8349 51.9959 74.0649 50.4296 73.7849L49.6071 73.6362C48.5921 73.4524 48.0846 73.1024 48.0846 72.4462C48.0846 71.7024 48.7496 71.2387 49.7646 71.2387C50.6659 71.2387 51.5496 71.5799 52.0571 71.9387L52.6434 70.8887C51.9084 70.3549 50.8934 70.0224 49.7209 70.0224C47.9009 70.0224 46.6758 70.9587 46.6758 72.4812C46.6758 73.6799 47.4196 74.5549 49.0909 74.8349L49.9046 74.9749C50.9721 75.1587 51.4446 75.5699 51.4446 76.1824C51.4446 76.9874 50.6834 77.4337 49.5196 77.4337C48.3909 77.4337 47.6296 77.0749 47.0696 76.6112L46.4309 77.6437C47.2971 78.3524 48.4434 78.6499 49.5459 78.6499Z" fill="black"/>
<path d="M56.1079 78.5012V73.4874C56.1079 72.1574 57.0267 71.3262 58.1904 71.3262C59.4417 71.3262 60.1854 72.0962 60.1854 73.4437V78.5012H61.5592V73.0412C61.5592 71.1862 60.3517 70.0137 58.5754 70.0137C57.6304 70.0137 56.7117 70.3374 56.1079 71.1337V65.9012H54.7254V78.5012H56.1079Z" fill="black"/>
<path d="M67.0594 78.6499C68.2406 78.6499 69.1069 78.1512 69.6931 77.3812V78.5012H71.0494V70.1712H69.6931V71.2737C69.1156 70.5037 68.2494 70.0137 67.0769 70.0137C64.9944 70.0137 63.4631 71.7637 63.4631 74.3362C63.4631 76.8999 64.9856 78.6499 67.0594 78.6499ZM67.3131 77.3374C65.8431 77.3374 64.8806 76.1299 64.8806 74.3362C64.8806 72.5424 65.8431 71.3262 67.3131 71.3262C68.7569 71.3262 69.7456 72.5162 69.7456 74.3362C69.7456 76.1562 68.7569 77.3374 67.3131 77.3374Z" fill="black"/>
<path d="M74.9322 81.8524V77.4599C75.5272 78.1862 76.3847 78.6499 77.5397 78.6499C79.6135 78.6499 81.136 76.8999 81.136 74.3362C81.136 71.7724 79.6135 70.0137 77.5397 70.0137C76.376 70.0137 75.5097 70.4862 74.9147 71.2299V70.1712H73.5584V81.8524H74.9322ZM77.2947 77.3462C75.851 77.3462 74.8534 76.1562 74.8534 74.3362C74.8534 72.5074 75.851 71.3262 77.2947 71.3262C78.7647 71.3262 79.7272 72.5337 79.7272 74.3362C79.7272 76.1299 78.7647 77.3462 77.2947 77.3462Z" fill="black"/>
<path d="M86.4104 78.6499C87.5392 78.6499 88.5979 78.3349 89.5079 77.4249L88.7817 76.4712C88.1779 77.0399 87.4167 77.4162 86.5067 77.4162C85.1767 77.4162 84.1704 76.5674 84.0129 74.8349H89.8142C89.8317 74.6862 89.8404 74.5024 89.8404 74.3362C89.8404 71.7024 88.3879 70.0137 86.3054 70.0137C84.1179 70.0137 82.5867 71.7024 82.5867 74.3362C82.5867 76.9874 84.1267 78.6499 86.4104 78.6499ZM84.0217 73.6974C84.1967 72.1924 85.0192 71.2649 86.2879 71.2649C87.4867 71.2649 88.3092 72.2099 88.4404 73.6974H84.0217Z" fill="black"/>
<path d="M94.2871 78.6499C96.2821 78.6499 97.5858 77.6612 97.5858 76.1037C97.5858 74.8349 96.7371 74.0649 95.1708 73.7849L94.3483 73.6362C93.3333 73.4524 92.8258 73.1024 92.8258 72.4462C92.8258 71.7024 93.4908 71.2387 94.5058 71.2387C95.4071 71.2387 96.2908 71.5799 96.7983 71.9387L97.3846 70.8887C96.6496 70.3549 95.6346 70.0224 94.4621 70.0224C92.6421 70.0224 91.4171 70.9587 91.4171 72.4812C91.4171 73.6799 92.1608 74.5549 93.8321 74.8349L94.6458 74.9749C95.7133 75.1587 96.1858 75.5699 96.1858 76.1824C96.1858 76.9874 95.4246 77.4337 94.2608 77.4337C93.1321 77.4337 92.3708 77.0749 91.8108 76.6112L91.1721 77.6437C92.0383 78.3524 93.1846 78.6499 94.2871 78.6499Z" fill="black"/>
<path d="M100.324 78.6499C100.893 78.6499 101.365 78.1774 101.365 77.6087C101.365 77.0399 100.893 76.5587 100.324 76.5587C99.7554 76.5587 99.2829 77.0312 99.2829 77.5999C99.2829 78.1687 99.7554 78.6499 100.324 78.6499Z" fill="black"/>
</svg>
