<svg width="412" height="216" viewBox="0 0 412 216" fill="none" xmlns="http://www.w3.org/2000/svg">
<path d="M209.984 56.0859V7.16114H193.455V0.883852H233.164V7.16114H216.636V56.0859H209.984Z" fill="#1D1D1B"/>
<path d="M242.734 36.4905V0.883852H249.385V36.0558C249.385 45.758 255.136 50.2963 262.965 50.2963C270.794 50.2963 276.576 45.758 276.576 36.0558V0.883852H283.228V36.4905C283.228 49.6601 274.688 56.7645 262.965 56.7645C251.242 56.7645 242.734 49.6707 242.734 36.4905Z" fill="#1D1D1B"/>
<path d="M295.768 56.0859V0.883852H311.098C327.308 0.883852 337.154 11.3707 337.154 28.4849C337.154 45.599 327.308 56.0859 311.098 56.0859H295.768ZM302.42 49.8192H311.056C323.691 49.8192 330.184 41.612 330.184 28.4849C330.184 15.3577 323.691 7.15055 311.056 7.15055H302.42V49.8192Z" fill="#1D1D1B"/>
<path d="M353.778 0.883852H347.126V56.0859H353.778V0.883852Z" fill="#1D1D1B"/>
<path d="M35.2324 134.987L6.62001 92.2015V134.944H0V79.6999H6.22748L34.8717 122.559V79.7423H41.4917V134.987H35.2324Z" fill="#1D1D1B"/>
<path d="M60.8001 79.7423H54.1483V134.944H60.8001V79.7423Z" fill="#1D1D1B"/>
<path d="M68.5659 107.343C68.5659 90.1126 78.7611 79.0319 93.2848 79.0319C101.984 79.0319 109.421 83.4112 113.124 90.8231L107.458 94.0571C104.552 88.6599 99.4274 85.5001 93.2954 85.5001C83.0578 85.5001 75.5466 93.739 75.5466 107.343C75.5466 120.948 83.1426 129.187 93.2954 129.187C99.3956 129.187 104.477 126.069 107.458 120.672L112.975 124.097C109.113 131.35 101.952 135.655 93.2954 135.655C78.7717 135.655 68.5765 124.574 68.5765 107.343" fill="#1D1D1B"/>
<path d="M156.663 79.7423V103.993H131.382V79.7423H124.74V134.944H131.382V110.259H156.663V134.944H163.315V79.7423H156.663Z" fill="#1D1D1B"/>
<path d="M172.895 107.343C172.895 90.155 182.655 79.0319 196.627 79.0319C210.599 79.0319 220.359 90.155 220.359 107.343C220.359 124.532 210.61 135.655 196.627 135.655C182.644 135.655 172.895 124.532 172.895 107.343ZM213.729 107.343C213.729 93.739 206.536 85.5001 196.627 85.5001C186.718 85.5001 179.557 93.739 179.557 107.343C179.557 120.948 186.75 129.187 196.627 129.187C206.504 129.187 213.729 120.948 213.729 107.343Z" fill="#1D1D1B"/>
<path d="M314.747 107.343C314.747 90.155 324.508 79.0319 338.48 79.0319C352.452 79.0319 362.212 90.155 362.212 107.343C362.212 124.532 352.462 135.655 338.48 135.655C324.497 135.655 314.747 124.532 314.747 107.343ZM355.581 107.343C355.581 93.739 348.388 85.5001 338.48 85.5001C328.571 85.5001 321.41 93.739 321.41 107.343C321.41 120.948 328.603 129.187 338.48 129.187C348.357 129.187 355.581 120.948 355.581 107.343Z" fill="#1D1D1B"/>
<path d="M363.528 28.4849C363.528 11.2965 373.288 0.173417 387.26 0.173417C401.232 0.173417 410.992 11.2965 410.992 28.4849C410.992 45.6732 401.242 56.7963 387.26 56.7963C373.277 56.7963 363.528 45.6732 363.528 28.4849ZM404.362 28.4849C404.362 14.8805 397.169 6.64157 387.26 6.64157C377.351 6.64157 370.19 14.8805 370.19 28.4849C370.19 42.0892 377.383 50.3281 387.26 50.3281C397.137 50.3281 404.362 42.0892 404.362 28.4849Z" fill="#1D1D1B"/>
<path d="M229.09 134.944V79.7423H235.742V128.678H262.976V134.944H229.09Z" fill="#1D1D1B"/>
<path d="M406.027 134.987L378.73 92.2015V134.944H372.418V79.6999H378.348L405.688 122.559V79.7423H412V134.987H406.027Z" fill="#1D1D1B"/>
<path d="M226.544 214.206V209.01L256.737 165.239H226.958V159.004H265.405V164.178L235.265 207.982H265.532V214.206H226.544Z" fill="#1D1D1B"/>
<path d="M270.084 214.206L289.636 158.961H297.55L317.103 214.206H310.122L305.008 199.382H282.029L276.916 214.206H270.084ZM302.897 193.147L293.529 165.938L284.162 193.147H302.897Z" fill="#1D1D1B"/>
<path d="M364.822 214.206L384.374 158.961H392.288L411.841 214.206H404.86L399.747 199.382H376.768L371.654 214.206H364.822ZM397.635 193.147L388.268 165.938L378.9 193.147H397.635Z" fill="#1D1D1B"/>
<path d="M323.659 159.014H343.604C355.136 159.014 361.703 164.772 361.703 174.867C361.703 184.336 355.136 190.284 344.431 190.56L361.788 214.227H353.799L336.994 190.56H330.311V214.227H323.659V159.014ZM330.311 184.643H343.561C350.807 184.643 354.818 181.292 354.818 174.867C354.818 168.441 350.722 165.249 343.561 165.249H330.311V184.643Z" fill="#1D1D1B"/>
<path d="M30.8403 186.35V158.908H29.249V186.35H0.8275V187.941H29.249V215.075H30.8403V187.941H60.259V186.35H30.8403Z" fill="#1D1D1B"/>
<path d="M266.349 117.056H273.744C274.624 125.285 280.035 129.844 289.912 129.844C297.158 129.844 302.43 126.61 302.43 119.993C302.43 112.857 296.139 111.171 286.623 109.04C276.895 106.983 268.62 104.183 268.62 93.6754C268.62 84.4821 276.3 79.0425 287.504 79.0425C300.892 79.0425 306.897 85.8076 308.212 95.1387H300.966C300.012 88.5221 295.259 84.9169 287.578 84.9169C280.406 84.9169 275.717 87.8541 275.717 93.2937C275.717 99.2529 281.647 100.939 289.838 102.625C300.372 104.756 309.963 107.481 309.963 119.686C309.963 130.056 301.476 135.856 289.689 135.856C274.465 135.856 266.933 127.479 266.339 117.035L266.349 117.056Z" fill="#1D1D1B"/>
<path d="M147.677 38.0811H155.072C155.952 46.3094 161.363 50.8689 171.24 50.8689C178.486 50.8689 183.758 47.6348 183.758 41.0182C183.758 33.8821 177.467 32.1961 167.951 30.0648C158.222 28.0077 149.947 25.2084 149.947 14.7003C149.947 5.50699 157.628 0.0673828 168.831 0.0673828C182.22 0.0673828 188.225 6.83244 189.54 16.1636H182.294C181.339 9.54694 176.587 5.94174 168.906 5.94174C161.734 5.94174 157.045 8.87892 157.045 14.3185C157.045 20.2777 162.975 21.9637 171.165 23.6496C181.7 25.781 191.291 28.5061 191.291 40.7107C191.291 51.081 182.803 56.8811 171.017 56.8811C155.793 56.8811 148.261 48.5043 147.666 38.0599L147.677 38.0811Z" fill="#1D1D1B"/>
</svg>
