<svg width="340" height="178" viewBox="0 0 340 178" fill="none" xmlns="http://www.w3.org/2000/svg">
<path d="M173.287 46.6034V6.21281H159.647V1.03049H192.417V6.21281H178.777V46.6034H173.287Z" fill="#1D1D1B"/>
<path d="M200.314 30.4261V1.03049H205.804V30.0672C205.804 38.0771 210.549 41.8237 217.01 41.8237C223.471 41.8237 228.243 38.0771 228.243 30.0672V1.03049H233.732V30.4261C233.732 41.2985 226.684 47.1636 217.01 47.1636C207.336 47.1636 200.314 41.3073 200.314 30.4261Z" fill="#1D1D1B"/>
<path d="M244.08 46.6034V1.03049H256.731C270.109 1.03049 278.234 9.68812 278.234 23.8169C278.234 37.9458 270.109 46.6034 256.731 46.6034H244.08ZM249.57 41.4298H256.696C267.123 41.4298 272.482 34.6543 272.482 23.8169C272.482 12.9796 267.123 6.20406 256.696 6.20406H249.57V41.4298Z" fill="#1D1D1B"/>
<path d="M291.953 1.03049H286.463V46.6034H291.953V1.03049Z" fill="#1D1D1B"/>
<path d="M29.0753 111.741L5.46311 76.4192V111.706H0V66.0983H5.13918L28.7777 101.482V66.1334H34.2408V111.741H29.0753Z" fill="#1D1D1B"/>
<path d="M50.1748 66.1334H44.6855V111.706H50.1748V66.1334Z" fill="#1D1D1B"/>
<path d="M56.5835 88.9198C56.5835 74.6947 64.997 65.5468 76.9826 65.5468C84.1617 65.5468 90.299 69.1622 93.3545 75.2812L88.6793 77.9511C86.2804 73.4954 82.0518 70.8867 76.9914 70.8867C68.5428 70.8867 62.3443 77.6885 62.3443 88.9198C62.3443 100.151 68.6129 106.953 76.9914 106.953C82.0255 106.953 86.2191 104.379 88.6793 99.9235L93.2319 102.751C90.0451 108.739 84.1354 112.293 76.9914 112.293C65.0058 112.293 56.5922 103.145 56.5922 88.9198" fill="#1D1D1B"/>
<path d="M129.285 66.1334V86.1536H108.422V66.1334H102.941V111.706H108.422V91.3271H129.285V111.706H134.774V66.1334H129.285Z" fill="#1D1D1B"/>
<path d="M142.68 88.9198C142.68 74.7297 150.735 65.5468 162.265 65.5468C173.795 65.5468 181.85 74.7297 181.85 88.9198C181.85 103.11 173.804 112.293 162.265 112.293C150.726 112.293 142.68 103.11 142.68 88.9198ZM176.378 88.9198C176.378 77.6885 170.442 70.8867 162.265 70.8867C154.088 70.8867 148.178 77.6885 148.178 88.9198C148.178 100.151 154.114 106.953 162.265 106.953C170.416 106.953 176.378 100.151 176.378 88.9198Z" fill="#1D1D1B"/>
<path d="M259.743 88.9198C259.743 74.7297 267.798 65.5468 279.328 65.5468C290.858 65.5468 298.913 74.7297 298.913 88.9198C298.913 103.11 290.867 112.293 279.328 112.293C267.789 112.293 259.743 103.11 259.743 88.9198ZM293.441 88.9198C293.441 77.6885 287.505 70.8867 279.328 70.8867C271.151 70.8867 265.241 77.6885 265.241 88.9198C265.241 100.151 271.177 106.953 279.328 106.953C287.479 106.953 293.441 100.151 293.441 88.9198Z" fill="#1D1D1B"/>
<path d="M299.998 23.8169C299.998 9.62684 308.053 0.443983 319.583 0.443983C331.114 0.443983 339.168 9.62684 339.168 23.8169C339.168 38.007 331.122 47.1899 319.583 47.1899C308.044 47.1899 299.998 38.007 299.998 23.8169ZM333.696 23.8169C333.696 12.5857 327.761 5.78387 319.583 5.78387C311.406 5.78387 305.497 12.5857 305.497 23.8169C305.497 35.0482 311.432 41.85 319.583 41.85C327.734 41.85 333.696 35.0482 333.696 23.8169Z" fill="#1D1D1B"/>
<path d="M189.055 111.706V66.1334H194.545V106.533H217.019V111.706H189.055Z" fill="#1D1D1B"/>
<path d="M335.071 111.741L312.544 76.4192V111.706H307.335V66.0983H312.229L334.791 101.482V66.1334H340V111.741H335.071Z" fill="#1D1D1B"/>
<path d="M186.954 177.142V172.852L211.871 136.716H187.295V131.569H219.024V135.841L194.151 172.003H219.129V177.142H186.954Z" fill="#1D1D1B"/>
<path d="M222.884 177.142L239.02 131.534H245.551L261.687 177.142H255.926L251.706 164.904H232.743L228.523 177.142H222.884ZM249.964 159.756L242.233 137.294L234.502 159.756H249.964Z" fill="#1D1D1B"/>
<path d="M301.067 177.142L317.202 131.534H323.733L339.869 177.142H334.108L329.888 164.904H310.925L306.705 177.142H301.067ZM328.146 159.756L320.415 137.294L312.684 159.756H328.146Z" fill="#1D1D1B"/>
<path d="M267.097 131.578H283.557C293.073 131.578 298.493 136.331 298.493 144.665C298.493 152.482 293.073 157.393 284.239 157.621L298.563 177.159H291.97L278.102 157.621H272.587V177.159H267.097V131.578ZM272.587 152.736H283.522C289.501 152.736 292.811 149.97 292.811 144.665C292.811 139.36 289.431 136.725 283.522 136.725H272.587V152.736Z" fill="#1D1D1B"/>
<path d="M25.4508 154.145V131.49H24.1375V154.145H0.682888V155.458H24.1375V177.86H25.4508V155.458H49.7283V154.145H25.4508Z" fill="#1D1D1B"/>
<path d="M219.803 96.9384H225.905C226.632 103.731 231.097 107.496 239.248 107.496C245.227 107.496 249.578 104.826 249.578 99.3632C249.578 93.4718 244.387 92.08 236.534 90.3204C228.505 88.6222 221.676 86.3111 221.676 77.636C221.676 70.0464 228.015 65.5556 237.26 65.5556C248.309 65.5556 253.264 71.1406 254.35 78.844H248.37C247.582 73.3816 243.66 70.4053 237.321 70.4053C231.403 70.4053 227.533 72.8301 227.533 77.3209C227.533 82.2406 232.427 83.6324 239.186 85.0243C247.88 86.7838 255.795 89.0336 255.795 99.1094C255.795 107.671 248.791 112.459 239.064 112.459C226.5 112.459 220.284 105.543 219.794 96.9209L219.803 96.9384Z" fill="#1D1D1B"/>
<path d="M121.869 31.7392H127.972C128.698 38.5323 133.163 42.2964 141.314 42.2964C147.294 42.2964 151.645 39.6265 151.645 34.1641C151.645 28.2727 146.453 26.8808 138.6 25.1213C130.572 23.423 123.743 21.112 123.743 12.4368C123.743 4.8472 130.082 0.356445 139.327 0.356445C150.376 0.356445 155.331 5.94144 156.417 13.6449H150.437C149.649 8.18245 145.727 5.20611 139.388 5.20611C133.47 5.20611 129.6 7.63094 129.6 12.1217C129.6 17.0414 134.494 18.4333 141.253 19.8251C149.947 21.5847 157.861 23.8344 157.861 33.9102C157.861 42.4715 150.857 47.2599 141.13 47.2599C128.567 47.2599 122.351 40.3443 121.861 31.7217L121.869 31.7392Z" fill="#1D1D1B"/>
</svg>
